<svg width="36" height="35" viewBox="0 0 36 35" fill="none" xmlns="http://www.w3.org/2000/svg">
<path d="M3.64583 15.6153C2.95548 15.6172 2.27979 15.8146 1.69693 16.1845C1.11406 16.5544 0.647843 17.0818 0.352209 17.7057C0.0565744 18.3295 -0.0563938 19.0243 0.0263738 19.7097C0.109141 20.3951 0.384262 21.043 0.819907 21.5785L10.1068 32.955C10.438 33.3661 10.8624 33.6924 11.3449 33.9065C11.8274 34.1207 12.3541 34.2167 12.8811 34.1864C14.0084 34.1259 15.0261 33.5229 15.6749 32.5314L34.9662 1.46283C34.9694 1.45768 34.9727 1.45252 34.9761 1.44745C35.1571 1.16952 35.0984 0.618753 34.7248 0.272753C34.6221 0.177737 34.5011 0.104738 34.3692 0.0582526C34.2373 0.0117669 34.0973 -0.00722191 33.9577 0.00245619C33.8182 0.0121343 33.6821 0.0502744 33.5579 0.114527C33.4337 0.17878 33.3239 0.267785 33.2354 0.376061C33.2284 0.384573 33.2213 0.392958 33.214 0.401214L13.7584 22.3831C13.6844 22.4667 13.5945 22.5348 13.4939 22.5834C13.3934 22.632 13.2841 22.6602 13.1726 22.6662C13.061 22.6722 12.9494 22.656 12.8442 22.6186C12.739 22.5811 12.6422 22.5231 12.5596 22.4479L6.10268 16.5721C5.43207 15.9573 4.55557 15.616 3.64583 15.6153Z" fill="#FEFAF7"/>
</svg>
