<svg width="17" height="15" viewBox="0 0 17 15" fill="none" xmlns="http://www.w3.org/2000/svg">
<path d="M16.9208 7.24066C16.915 6.60479 16.6588 5.99685 16.2077 5.54858L11.0227 0.351461C10.7963 0.126353 10.4899 0 10.1706 0C9.85133 0 9.545 0.126353 9.31855 0.351461C9.20526 0.463819 9.11535 0.597495 9.05399 0.744778C8.99263 0.892061 8.96104 1.05004 8.96104 1.20959C8.96104 1.36914 8.99263 1.52712 9.05399 1.6744C9.11535 1.82168 9.20526 1.95536 9.31855 2.06772L13.2949 6.03203H1.20863C0.888082 6.03203 0.580662 6.15937 0.354 6.38603C0.127338 6.61269 0 6.92011 0 7.24066C0 7.56121 0.127338 7.86863 0.354 8.09529C0.580662 8.32195 0.888082 8.44929 1.20863 8.44929H13.2949L9.31855 12.4257C9.09096 12.6517 8.96246 12.9588 8.96133 13.2795C8.9602 13.6003 9.08652 13.9083 9.3125 14.1359C9.53849 14.3635 9.84563 14.492 10.1664 14.4931C10.4871 14.4943 10.7951 14.3679 11.0227 14.1419L16.2077 8.94483C16.6617 8.49359 16.9181 7.88072 16.9208 7.24066Z" fill="#FFFEFD"/>
</svg>
