<svg width="40" height="40" viewBox="0 0 40 40" fill="none" xmlns="http://www.w3.org/2000/svg">
<path d="M34.6216 2.5708H18.5172C16.6433 2.5708 15.1189 4.09533 15.1189 5.96908V17.6771C15.1189 17.8869 15.2568 18.0718 15.4578 18.1317C15.6592 18.1918 15.8755 18.1119 15.9901 17.9369L18.8149 13.6212C19.2018 13.0301 19.8548 12.6771 20.5614 12.6771H34.6215C37.4079 12.6771 39.6747 10.4103 39.6747 7.62385C39.6748 4.8376 37.408 2.5708 34.6216 2.5708ZM34.6216 11.7283H20.5614C19.5335 11.7283 18.5838 12.2416 18.0211 13.1016L16.0676 16.0861V5.96908C16.0676 4.61838 17.1665 3.51955 18.5172 3.51955H34.6216C36.8848 3.51955 38.726 5.36072 38.726 7.62385C38.726 9.88713 36.8848 11.7283 34.6216 11.7283Z" fill="#FEFAF7"/>
<path d="M34.1568 5.99268H19.6741C19.4121 5.99268 19.1997 6.20502 19.1997 6.46705C19.1997 6.72908 19.4121 6.94143 19.6741 6.94143H34.1569C34.4189 6.94143 34.6313 6.72908 34.6313 6.46705C34.6312 6.20502 34.4188 5.99268 34.1568 5.99268Z" fill="#FEFAF7"/>
<path d="M29.8271 8.38135H19.6741C19.4121 8.38135 19.1997 8.59369 19.1997 8.85572C19.1997 9.11775 19.4121 9.3301 19.6741 9.3301H29.8271C30.0891 9.3301 30.3014 9.11775 30.3014 8.85572C30.3014 8.59369 30.0891 8.38135 29.8271 8.38135Z" fill="#FEFAF7"/>
<path d="M8.91171 14.2455C8.91171 15.6952 6.72194 16.2113 4.84343 16.2113C3.27608 16.2113 0.775146 15.8052 0.775146 14.2455C0.775146 12.0027 2.60054 10.1772 4.84718 10.1772C7.08632 10.1772 8.91171 12.0026 8.91171 14.2455Z" fill="#FEFAF7"/>
<path d="M7.12806 6.79584C7.12806 8.05576 6.10337 9.08428 4.84345 9.08428C3.58353 9.08428 2.55884 8.05584 2.55884 6.79584C2.55884 5.53584 3.58353 4.51123 4.84345 4.51123C6.10345 4.51123 7.12806 5.53584 7.12806 6.79584Z" fill="#FEFAF7"/>
<path d="M5.82893 31.8626H19.889C20.5956 31.8626 21.2484 32.2156 21.6355 32.8069L24.4604 37.1226C24.5749 37.2974 24.791 37.3774 24.993 37.3174C25.1938 37.2575 25.3317 37.0726 25.3317 36.8628V25.1546C25.3317 23.2808 23.8072 21.7563 21.9333 21.7563H5.82893C3.04268 21.7563 0.775879 24.0231 0.775879 26.8096C0.775879 29.5958 3.04268 31.8626 5.82893 31.8626ZM5.82893 22.7051H21.9333C23.2842 22.7051 24.383 23.8039 24.383 25.1546V35.2721L22.4293 32.2874C21.8663 31.4274 20.9167 30.9139 19.889 30.9139H5.82893C3.5658 30.9139 1.72463 29.0728 1.72463 26.8096C1.72463 24.5463 3.5658 22.7051 5.82893 22.7051Z" fill="#FEFAF7"/>
<path d="M6.29347 26.127H20.7762C21.0382 26.127 21.2506 25.9146 21.2506 25.6526C21.2506 25.3906 21.0382 25.1782 20.7762 25.1782H6.29347C6.03144 25.1782 5.81909 25.3906 5.81909 25.6526C5.81909 25.9146 6.03144 26.127 6.29347 26.127Z" fill="#FEFAF7"/>
<path d="M20.776 27.5669H10.6231C10.361 27.5669 10.1487 27.7792 10.1487 28.0413C10.1487 28.3033 10.361 28.5156 10.6231 28.5156H20.776C21.0381 28.5156 21.2504 28.3033 21.2504 28.0413C21.2504 27.7792 21.0381 27.5669 20.776 27.5669Z" fill="#FEFAF7"/>
<path d="M39.6742 33.433C39.6742 34.8827 37.4844 35.3951 35.6059 35.3951C34.0385 35.3951 31.5376 34.9928 31.5376 33.433C31.5376 31.1902 33.363 29.3647 35.6059 29.3647C37.8488 29.3648 39.6742 31.1902 39.6742 33.433Z" fill="#FEFAF7"/>
<path d="M37.2146 27.5996C38.1066 26.7075 38.1066 25.2612 37.2146 24.3692C36.3225 23.4771 34.8762 23.4771 33.9841 24.3692C33.0921 25.2612 33.0921 26.7075 33.9841 27.5996C34.8762 28.4917 36.3225 28.4917 37.2146 27.5996Z" fill="#FEFAF7"/>
</svg>
