<svg width="40" height="40" viewBox="0 0 40 40" fill="none" xmlns="http://www.w3.org/2000/svg">
<path d="M6.10945 18.5196C5.41911 18.5215 4.74342 18.7189 4.16055 19.0888C3.57768 19.4587 3.11147 19.9861 2.81583 20.61C2.5202 21.2338 2.40723 21.9286 2.49 22.614C2.57276 23.2994 2.84789 23.9473 3.28353 24.4828L12.5705 35.8593C12.9016 36.2704 13.326 36.5967 13.8085 36.8108C14.2911 37.025 14.8177 37.121 15.3448 37.0907C16.472 37.0302 17.4897 36.4272 18.1385 35.4357L37.4298 4.36713C37.433 4.36197 37.4363 4.35682 37.4397 4.35174C37.6207 4.07382 37.562 3.52305 37.1884 3.17705C37.0857 3.08203 36.9647 3.00904 36.8328 2.96255C36.7009 2.91606 36.5609 2.89707 36.4214 2.90675C36.2818 2.91643 36.1458 2.95457 36.0215 3.01882C35.8973 3.08308 35.7875 3.17208 35.699 3.28036C35.6921 3.28887 35.6849 3.29725 35.6776 3.30551L16.2221 25.2874C16.148 25.371 16.0581 25.4391 15.9576 25.4877C15.857 25.5363 15.7477 25.5645 15.6362 25.5705C15.5247 25.5765 15.413 25.5603 15.3078 25.5229C15.2026 25.4854 15.1058 25.4274 15.0232 25.3522L8.5663 19.4764C7.89569 18.8616 7.01919 18.5203 6.10945 18.5196Z" fill="#EF6500"/>
</svg>
