<svg width="48" height="48" viewBox="0 0 48 48" fill="none" xmlns="http://www.w3.org/2000/svg">
<g clip-path="url(#clip0_328_971)">
<path d="M11.2 35.1999C10.5576 35.1999 9.9544 34.9495 9.5024 34.4959L0.7032 25.6967C0.2504 25.2455 0 24.6423 0 23.9999C0 23.3575 0.2504 22.7543 0.704 22.3023L9.5032 13.5031C9.9544 13.0503 10.5576 12.7999 11.2 12.7999C12.5232 12.7999 13.6 13.8767 13.6 15.1999C13.6 15.8423 13.3496 16.4455 12.896 16.8975L5.7936 23.9999L12.8968 31.1031C13.3504 31.5543 13.6 32.1575 13.6 32.7999C13.6 34.1231 12.5232 35.1999 11.2 35.1999Z" fill="#FFFEFD"/>
<path d="M36.8 36C35.4768 36 34.4 34.9232 34.4 33.6C34.4 32.9576 34.6504 32.3544 35.104 31.9024L42.2064 24.8L35.1032 17.6968C34.6504 17.244 34.4 16.6408 34.4 16C34.4 14.6768 35.4768 13.6 36.8 13.6C37.4424 13.6 38.0456 13.8504 38.4976 14.304L47.2968 23.1032C47.7504 23.556 48 24.1592 48 24.8C48 25.4424 47.7496 26.0456 47.296 26.4976L38.4968 35.2968C38.0456 35.7504 37.4424 36 36.8 36Z" fill="#FFFEFD"/>
<path d="M16.8 42.4C15.4768 42.4 14.4 41.3232 14.4 40C14.4 39.6816 14.4624 39.3704 14.584 39.076L28.9848 7.07438C29.3608 6.17838 30.2304 5.59998 31.2 5.59998C32.5232 5.59998 33.6 6.67678 33.6 7.99998C33.6 8.31838 33.5376 8.62958 33.416 8.92398L19.0152 40.9256C18.6392 41.8216 17.7696 42.4 16.8 42.4Z" fill="#FFFEFD"/>
</g>
<defs>
<clipPath id="clip0_328_971">
<rect width="48" height="48" fill="white"/>
</clipPath>
</defs>
</svg>
