<svg width="40" height="40" viewBox="0 0 40 40" fill="none" xmlns="http://www.w3.org/2000/svg">
<path d="M7.98735 14.0253L14.5436 7.68779C14.2264 6.76826 13.1933 3.76711 12.8999 2.89404L3.6311 11.8503C3.86028 12.0253 7.98735 14.0253 7.98735 14.0253Z" fill="black"/>
<path d="M32.0125 25.9751L25.4563 32.3126C25.7739 33.2333 26.8051 36.2346 27.1063 37.1063L36.3875 28.1313C36.1482 27.9707 32.0125 25.9751 32.0125 25.9751Z" fill="black"/>
<path d="M32.6688 15.7501L32.4563 24.8001C33.3596 25.2506 36.1248 26.5524 36.9625 27.0188L37.2688 14.1626L32.6688 15.7501Z" fill="black"/>
<path d="M15.6937 7.16895C15.6946 7.17064 24.8783 7.38628 24.8812 7.3877C25.3041 6.51557 26.7009 3.64516 27.0999 2.81895L14.0874 2.5127C14.376 3.33931 15.3905 6.28957 15.6937 7.16895Z" fill="black"/>
<path d="M32.2499 14.5628C33.1597 14.249 36.1456 13.2228 37.0061 12.9253L28.1499 3.51904L26.0061 7.93154L32.2499 14.5628Z" fill="black"/>
<path d="M24.3062 32.8315L15.1187 32.6128C14.6944 33.4872 13.2999 36.3537 12.8999 37.1815L25.9124 37.4878C25.6236 36.6608 24.6094 33.7112 24.3062 32.8315Z" fill="black"/>
<path d="M7.75005 25.4375C6.83654 25.7508 3.85182 26.7713 2.98755 27.0688L11.8438 36.4812L13.9938 32.0688L7.75005 25.4375Z" fill="black"/>
<path d="M7.3312 24.2502L7.5437 15.2002C7.5437 15.2002 3.28278 13.138 3.03745 12.9502L2.7312 25.8377C3.55433 25.5567 6.45876 24.5523 7.3312 24.2502Z" fill="black"/>
<path d="M15.5875 8.41895L8.79995 14.9814L8.57495 24.4877L15.0437 31.3627L24.4125 31.5814L31.1999 25.0189L31.4249 15.5127L24.9562 8.63769L15.5875 8.41895ZM29.4625 16.5502L29.2875 23.8939C29.2865 23.9756 29.2694 24.0563 29.2373 24.1314C29.2051 24.2064 29.1584 24.2744 29.1 24.3314L23.85 29.4002C23.7289 29.5157 23.5672 29.5786 23.3999 29.5752L16.15 29.4064C15.9843 29.4018 15.8272 29.3322 15.7125 29.2127L10.7062 23.8939C10.6497 23.8351 10.6057 23.7655 10.5767 23.6892C10.5477 23.613 10.5344 23.5317 10.5375 23.4502L10.7125 16.1064C10.7134 16.0248 10.7305 15.9441 10.7626 15.869C10.7948 15.794 10.8415 15.726 10.9 15.6689L16.15 10.6002C16.208 10.5404 16.2782 10.4938 16.3559 10.4636C16.4335 10.4334 16.5168 10.4203 16.6 10.4252L23.85 10.5939C24.0156 10.5986 24.1727 10.6682 24.2875 10.7877L29.2937 16.1064C29.3502 16.1653 29.3942 16.2349 29.4232 16.3112C29.4522 16.3874 29.4655 16.4687 29.4625 16.5502Z" fill="black"/>
<path d="M16.8312 11.6816L11.9562 16.3941L11.7937 23.2254L16.4437 28.1629L23.1687 28.3191L28.0437 23.6066L28.2062 16.7754L23.5562 11.8379L16.8312 11.6816Z" fill="black"/>
</svg>
