<svg width="500" height="500" viewBox="0 0 500 500" fill="none" xmlns="http://www.w3.org/2000/svg">
<path d="M123.32 50.04C125.944 50.04 128.527 48.9759 130.386 47.1061C132.256 45.2569 133.32 42.6846 133.32 40.04C133.32 37.3954 132.256 34.8334 130.386 32.9739C128.537 31.104 125.944 30.04 123.32 30.04C120.696 30.04 118.113 31.104 116.254 32.9739C114.384 34.823 113.32 37.416 113.32 40.04C113.32 42.6639 114.384 45.2466 116.254 47.1061C118.103 48.9759 120.675 50.04 123.32 50.04Z" fill="url(#paint0_linear_293_43)"/>
<path d="M82.03 50.04C84.6643 50.04 87.2366 48.9759 89.0961 47.1061C90.966 45.2569 92.03 42.6846 92.03 40.04C92.03 37.3954 90.966 34.8334 89.0961 32.9739C87.247 31.104 84.6747 30.04 82.03 30.04C79.3854 30.04 76.8234 31.104 74.9639 32.9739C73.0941 34.823 72.03 37.416 72.03 40.04C72.03 42.6639 73.0941 45.2466 74.9639 47.1061C76.8131 48.9759 79.4061 50.04 82.03 50.04Z" fill="url(#paint1_linear_293_43)"/>
<path d="M40.75 50.04C43.374 50.04 45.9566 48.9759 47.8161 47.1061C49.686 45.2569 50.75 42.6846 50.75 40.04C50.75 37.3954 49.686 34.8334 47.8161 32.9739C45.9669 31.104 43.374 30.04 40.75 30.04C38.126 30.04 35.5434 31.104 33.6839 32.9739C31.814 34.823 30.75 37.416 30.75 40.04C30.75 42.6639 31.814 45.2466 33.6839 47.1061C35.5331 48.9759 38.1054 50.04 40.75 50.04Z" fill="url(#paint2_linear_293_43)"/>
<path d="M124.14 360.12C117.82 360.12 111.89 357.66 107.45 353.2L20.93 266.68C16.48 262.24 14.02 256.31 14.02 250C14.02 243.69 16.48 237.75 20.94 233.31L107.46 146.79C111.9 142.34 117.83 139.88 124.14 139.88C137.15 139.88 147.74 150.47 147.74 163.48C147.74 169.8 145.28 175.73 140.82 180.17L70.99 250L140.83 319.84C145.29 324.28 147.74 330.21 147.74 336.52C147.74 349.53 137.15 360.12 124.14 360.12Z" fill="url(#paint3_linear_293_43)"/>
<path d="M375.86 367.99C362.85 367.99 352.26 357.4 352.26 344.39C352.26 338.07 354.72 332.14 359.18 327.7L429.01 257.87L359.17 188.03C354.72 183.58 352.26 177.65 352.26 171.35C352.26 158.34 362.85 147.75 375.86 147.75C382.18 147.75 388.11 150.21 392.55 154.67L479.07 241.19C483.53 245.64 485.98 251.57 485.98 257.87C485.98 264.17 483.52 270.12 479.06 274.56L392.54 361.08C388.1 365.54 382.17 367.99 375.86 367.99Z" fill="url(#paint4_linear_293_43)"/>
<path d="M179.21 430.92C166.2 430.92 155.61 420.33 155.61 407.32C155.61 404.19 156.22 401.13 157.42 398.23L299.01 83.58C302.71 74.77 311.26 69.08 320.79 69.08C333.8 69.08 344.39 79.67 344.39 92.68C344.39 95.81 343.78 98.87 342.58 101.77L200.98 416.43C197.28 425.24 188.73 430.93 179.2 430.93L179.21 430.92Z" fill="url(#paint5_linear_293_43)"/>
<defs>
<linearGradient id="paint0_linear_293_43" x1="113.32" y1="33.4927" x2="134.622" y2="35.8566" gradientUnits="userSpaceOnUse">
<stop stop-color="#EF6500"/>
<stop offset="0.341346" stop-color="#F28433"/>
<stop offset="0.668269" stop-color="#F28433"/>
<stop offset="1" stop-color="#EF6500"/>
</linearGradient>
<linearGradient id="paint1_linear_293_43" x1="72.03" y1="33.4927" x2="93.3318" y2="35.8566" gradientUnits="userSpaceOnUse">
<stop stop-color="#EF6500"/>
<stop offset="0.341346" stop-color="#F28433"/>
<stop offset="0.668269" stop-color="#F28433"/>
<stop offset="1" stop-color="#EF6500"/>
</linearGradient>
<linearGradient id="paint2_linear_293_43" x1="30.75" y1="33.4927" x2="52.0517" y2="35.8566" gradientUnits="userSpaceOnUse">
<stop stop-color="#EF6500"/>
<stop offset="0.341346" stop-color="#F28433"/>
<stop offset="0.668269" stop-color="#F28433"/>
<stop offset="1" stop-color="#EF6500"/>
</linearGradient>
<linearGradient id="paint3_linear_293_43" x1="14.02" y1="177.901" x2="157.546" y2="187.572" gradientUnits="userSpaceOnUse">
<stop stop-color="#EF6500"/>
<stop offset="0.341346" stop-color="#F28433"/>
<stop offset="0.668269" stop-color="#F28433"/>
<stop offset="1" stop-color="#EF6500"/>
</linearGradient>
<linearGradient id="paint4_linear_293_43" x1="352.26" y1="185.771" x2="495.786" y2="195.442" gradientUnits="userSpaceOnUse">
<stop stop-color="#EF6500"/>
<stop offset="0.341346" stop-color="#F28433"/>
<stop offset="0.668269" stop-color="#F28433"/>
<stop offset="1" stop-color="#EF6500"/>
</linearGradient>
<linearGradient id="paint5_linear_293_43" x1="155.61" y1="131.548" x2="358.473" y2="143.293" gradientUnits="userSpaceOnUse">
<stop stop-color="#EF6500"/>
<stop offset="0.341346" stop-color="#F28433"/>
<stop offset="0.668269" stop-color="#F28433"/>
<stop offset="1" stop-color="#EF6500"/>
</linearGradient>
</defs>
</svg>
