<svg width="48" height="48" viewBox="0 0 48 48" fill="none" xmlns="http://www.w3.org/2000/svg">
<g clip-path="url(#clip0_328_942)">
<path d="M24.0562 24C24.0562 19.5817 27.6379 16 32.0561 16C36.4744 16 40.0561 19.5818 40.0561 24C40.0561 28.4183 36.4743 31.9999 32.0561 31.9999C27.6378 31.9999 24.0562 28.4182 24.0562 24Z" fill="#FFFEFD"/>
<path d="M8.05609 40.0001C8.05609 35.5818 11.6378 32.0001 16.0561 32.0001L20.3193 29.7493L24.056 32.0001V40.0001C24.056 44.4184 20.4743 48 16.0561 48C11.6378 48 8.05609 44.4183 8.05609 40.0001Z" fill="#FFFEFD"/>
<path d="M24.0561 0L19.7029 7.56281L24.0561 15.9999H31.9439C36.3622 15.9999 39.9438 12.4182 39.9438 7.99997C39.9438 3.58172 36.3621 0 31.9439 0H24.0561Z" fill="#FFFEFD"/>
<path d="M7.94379 7.99997C7.94379 12.4182 11.5255 15.9999 15.9438 15.9999L20.1875 17.6391L24.0559 15.9999V0H15.9437C11.5255 0 7.94379 3.58172 7.94379 7.99997Z" fill="#FFFEFD"/>
<path d="M8.05609 23.9999C8.05609 28.4183 11.6378 31.9999 16.0561 31.9999H24.056V15.9999H16.0561C11.6378 15.9999 8.05609 19.5817 8.05609 23.9999Z" fill="#FFFEFD"/>
</g>
<defs>
<clipPath id="clip0_328_942">
<rect width="48" height="48" fill="white"/>
</clipPath>
</defs>
</svg>
