<svg width="32" height="32" viewBox="0 0 32 32" fill="none" xmlns="http://www.w3.org/2000/svg">
<g clip-path="url(#clip0_328_1253)">
<path d="M27.6364 0H4.36364C3.20633 0 2.09642 0.459739 1.27808 1.27808C0.459739 2.09642 0 3.20633 0 4.36364L0 27.6364C0 28.7937 0.459739 29.9036 1.27808 30.7219C2.09642 31.5403 3.20633 32 4.36364 32H27.6364C28.7937 32 29.9036 31.5403 30.7219 30.7219C31.5403 29.9036 32 28.7937 32 27.6364V4.36364C32 3.20633 31.5403 2.09642 30.7219 1.27808C29.9036 0.459739 28.7937 0 27.6364 0ZM19.1364 25.5545C18.6236 25.6527 18.4491 25.3436 18.4491 25.0873C18.4491 24.7673 18.4618 23.7109 18.4618 22.3964C18.4618 21.4745 18.1364 20.8727 17.7873 20.5782C20.0109 20.3364 22.3491 19.5055 22.3491 15.7309C22.3639 14.751 21.996 13.8039 21.3236 13.0909C21.4236 12.8418 21.7618 11.8418 21.2236 10.4891C21.2236 10.4891 20.3873 10.2255 18.4964 11.4964C16.8589 11.0552 15.1338 11.0552 13.4964 11.4964C11.5836 10.2236 10.7455 10.4891 10.7455 10.4891C10.2 11.8455 10.5455 12.8455 10.6491 13.0909C9.97514 13.8017 9.60582 14.7479 9.62 15.7273C9.62 19.4909 11.9545 20.3364 14.1655 20.5818C13.8029 20.9293 13.5782 21.3962 13.5327 21.8964C12.96 22.1473 11.5109 22.5818 10.6236 21.08C10.6236 21.08 10.0964 20.1345 9.09273 20.0673C9.09273 20.0673 8.11636 20.0545 9.02182 20.6636C9.02182 20.6636 9.68 20.9673 10.1345 22.1C10.1345 22.1 10.7218 24.0109 13.5036 23.42C13.5036 24.2382 13.5145 24.8564 13.5145 25.0909C13.5145 25.3255 13.3327 25.6545 12.8327 25.5618C8.86546 24.2673 6 20.5855 6 16.2436C6 10.8164 10.4745 6.42545 16 6.42545C21.5255 6.42545 26 10.8255 26 16.2527C26 20.5782 23.1382 24.2636 19.1364 25.5545Z" fill="url(#paint0_linear_328_1253)"/>
</g>
<defs>
<linearGradient id="paint0_linear_328_1253" x1="-7.29031e-08" y1="2.72919" x2="34.5247" y2="7.87428" gradientUnits="userSpaceOnUse">
<stop stop-color="#FDF0E6"/>
<stop offset="0.495192" stop-color="#FFFEFD"/>
<stop offset="1" stop-color="#FDF0E6"/>
</linearGradient>
<clipPath id="clip0_328_1253">
<rect width="32" height="32" fill="white"/>
</clipPath>
</defs>
</svg>
