<svg width="40" height="40" viewBox="0 0 40 40" fill="none" xmlns="http://www.w3.org/2000/svg">
<g clip-path="url(#clip0_504_186)">
<path d="M12.9123 20.5292C12.9338 19.6559 12.4294 18.8549 11.6324 18.497C10.8355 18.1392 9.90162 18.2943 9.2632 18.8906L5.61408 22.3363C4.7436 23.1573 4.70354 24.5286 5.5246 25.3991C6.34567 26.2695 7.71693 26.3096 8.58741 25.4885L12.2365 22.0429C12.6548 21.6488 12.8981 21.1038 12.9123 20.5292Z" fill="#FEFAF7"/>
<path d="M29.5381 2.11296C26.6812 2.02533 23.9074 3.08145 21.8322 5.04699C6.39988 19.6196 21.3276 5.52419 14.5339 11.9403C14.256 12.2075 14.0922 12.5719 14.0771 12.9572C14.0378 14.5291 16.8027 15.7593 18.5465 14.1102L23.7851 9.16559C24.1912 8.78227 24.7328 8.57594 25.2909 8.592C25.8491 8.60805 26.378 8.84518 26.7613 9.2512L37.1129 20.2224C43.3374 13.5438 38.8841 2.38594 29.5381 2.11296Z" fill="#FEFAF7"/>
<path d="M20.7852 28.8745C20.8067 28.0011 20.3022 27.2001 19.5052 26.8422C18.7083 26.4844 17.7745 26.6395 17.136 27.2359L13.4869 30.6815C12.9239 31.2126 12.6871 32.0037 12.8656 32.7569C13.0441 33.51 13.6108 34.1107 14.3522 34.3327C15.0937 34.5546 15.8973 34.3642 16.4602 33.8331L20.1094 30.3874C20.5278 29.9937 20.7712 29.4488 20.7852 28.8745Z" fill="#FEFAF7"/>
<path d="M36.5971 21.7186C36.527 21.6688 36.7452 21.8786 25.7396 10.2147C25.6117 10.0794 25.4354 10.0004 25.2493 9.99512C25.0632 9.98986 24.8826 10.0588 24.7473 10.1867L19.5087 15.1298C18.6833 15.9111 17.5807 16.3316 16.4446 16.2984C15.3085 16.2653 14.2324 15.7811 13.454 14.953C12.9335 14.4038 12.6529 13.6701 12.6741 12.9138C12.6953 12.1574 13.0165 11.4406 13.567 10.9214L19.3143 5.49404C16.6806 2.66819 12.7353 1.46908 8.97451 2.35141C5.21373 3.23374 2.2134 6.06241 1.11127 9.76474C0.00913969 13.4671 0.973988 17.4761 3.63994 20.2716L4.63502 21.3242C4.69678 21.254 4.64134 21.3165 8.29537 17.8674C9.4166 16.8099 11.0905 16.5928 12.4444 17.3295C13.7982 18.0661 14.5252 19.5895 14.2463 21.1053C15.3725 20.9563 16.5017 21.3574 17.2815 22.1835C18.0613 23.0096 18.3967 24.16 18.1831 25.2758C19.3098 25.128 20.4389 25.5302 21.2185 26.3569C21.9982 27.1837 22.3335 28.3344 22.1199 29.4505C23.2177 29.3042 24.3205 29.6817 25.0983 30.47C25.8761 31.2583 26.2388 32.3661 26.0778 33.4618C27.0075 34.0021 28.1929 33.7777 28.8607 32.9349C29.5285 32.0921 29.476 30.8868 28.7375 30.1053L19.3873 20.1986C19.2152 20.0162 19.1535 19.7558 19.2254 19.5156C19.2973 19.2753 19.4919 19.0917 19.7359 19.0338C19.9799 18.976 20.2362 19.0527 20.4084 19.2351L29.7585 29.1446C30.2899 29.7074 31.0812 29.944 31.8344 29.7652C32.5875 29.5865 33.188 29.0195 33.4098 28.2779C33.6315 27.5363 33.4408 26.7327 32.9094 26.1698L23.5585 16.2611C23.2983 15.9783 23.3139 15.5389 23.5935 15.2753C23.873 15.0117 24.3126 15.0219 24.5796 15.2982L33.9312 25.207C34.5339 25.8438 35.4607 26.055 36.2798 25.7421C37.0989 25.4293 37.6489 24.654 37.6736 23.7775C37.6413 22.9646 37.2462 22.209 36.5971 21.7186Z" fill="#FEFAF7"/>
<path d="M22.6195 30.8185C22.045 30.8002 21.4871 31.0124 21.07 31.4079L17.4209 34.8543C16.8579 35.3855 16.6211 36.1768 16.7997 36.93C16.9783 37.6831 17.5452 38.2838 18.2867 38.5057C19.0283 38.7277 19.8319 38.5371 20.3949 38.0058L24.044 34.5602C24.6784 33.9576 24.8887 33.0329 24.5773 32.2151C24.266 31.3974 23.494 30.8467 22.6195 30.8185Z" fill="#FEFAF7"/>
<path d="M16.8483 24.7016C16.8698 23.8283 16.3653 23.0273 15.5684 22.6694C14.7714 22.3115 13.8376 22.4667 13.1992 23.063L9.55005 26.5086C8.6947 27.3329 8.66235 28.6921 9.47751 29.5561C10.2927 30.4202 11.6515 30.4669 12.5241 29.6609L16.1732 26.2146C16.5911 25.8205 16.8342 25.2758 16.8483 24.7016Z" fill="#FEFAF7"/>
</g>
<defs>
<clipPath id="clip0_504_186">
<rect width="40" height="40" fill="white"/>
</clipPath>
</defs>
</svg>
