<svg width="20" height="22" viewBox="0 0 20 22" fill="none" xmlns="http://www.w3.org/2000/svg">
<path d="M1 2C1.2625 2 1.52109 2.10559 1.70801 2.2946L1.70768 2.29492C1.8942 2.48146 2 2.73614 2 3C2 3.26425 1.89415 3.52134 1.7054 3.70801L1.70508 3.70768C1.51828 3.89446 1.26213 4 1 4C0.735751 4 0.478657 3.89415 0.291992 3.7054L0.292318 3.70508C0.10554 3.51828 4.2617e-09 3.26213 0 3C0 2.7375 0.105593 2.47891 0.294596 2.29199L0.294922 2.29232C0.481721 2.10554 0.73787 2 1 2Z" fill="#FFFEFD"/>
<path d="M5 2C5.26425 2 5.52134 2.10585 5.70801 2.2946L5.70768 2.29492C5.89421 2.48146 6 2.73613 6 3C6 3.26425 5.89415 3.52134 5.7054 3.70801L5.70508 3.70768C5.51841 3.89433 5.263 4 5 4C4.7375 4 4.47891 3.89441 4.29199 3.7054L4.29232 3.70508C4.10554 3.51828 4 3.26213 4 3C4 2.7375 4.10559 2.47891 4.2946 2.29199L4.29492 2.29232C4.48146 2.1058 4.73613 2 5 2Z" fill="#FFFEFD"/>
<path d="M9 2C9.26251 2 9.52109 2.10559 9.70801 2.2946L9.70768 2.29492C9.89421 2.48146 10 2.73614 10 3C10 3.26425 9.89415 3.52134 9.7054 3.70801L9.70508 3.70768C9.51828 3.89446 9.26213 4 9 4C8.73575 4 8.47866 3.89415 8.29199 3.7054L8.29232 3.70508C8.10554 3.51828 8 3.26213 8 3C8 2.7375 8.10559 2.47891 8.2946 2.29199L8.29492 2.29232C8.48172 2.10554 8.73787 2 9 2Z" fill="#FFFEFD"/>
<path d="M4.40513 17.6422C4.15231 17.6422 3.91509 17.5438 3.73748 17.3654L0.276421 13.9044C0.0984074 13.7268 0 13.4896 0 13.2371C0 12.9847 0.0984074 12.7471 0.276821 12.5695L3.73788 9.10845C3.91549 8.93044 4.15271 8.83203 4.40513 8.83203C4.92557 8.83203 5.3492 9.25566 5.3492 9.7761C5.3492 10.0289 5.25079 10.2661 5.07238 10.4437L2.27897 13.2371L5.07278 16.0309C5.25119 16.2085 5.3492 16.4458 5.3492 16.6982C5.3492 17.2186 4.92557 17.6422 4.40513 17.6422Z" fill="#FFFEFD"/>
<path d="M14.4753 17.9577C13.9549 17.9577 13.5312 17.534 13.5312 17.0136C13.5312 16.7608 13.6297 16.5236 13.8081 16.346L16.6015 13.5526L13.8077 10.7588C13.6297 10.5808 13.5312 10.3435 13.5312 10.0915C13.5312 9.57109 13.9549 9.14746 14.4753 9.14746C14.7281 9.14746 14.9654 9.24587 15.143 9.42428L18.604 12.8853C18.7824 13.0633 18.8805 13.3005 18.8805 13.5526C18.8805 13.8046 18.782 14.0426 18.6036 14.2202L15.1426 17.6813C14.965 17.8597 14.7277 17.9577 14.4753 17.9577Z" fill="#FFFEFD"/>
<path d="M6.60813 20.4746C6.08769 20.4746 5.66406 20.051 5.66406 19.5305C5.66406 19.4053 5.68846 19.2829 5.73647 19.1669L11.4005 6.58004C11.5485 6.22762 11.8905 6 12.2718 6C12.7922 6 13.2158 6.42363 13.2158 6.94407C13.2158 7.06927 13.1914 7.19168 13.1434 7.30769L7.479 19.895C7.33099 20.2474 6.98896 20.475 6.60773 20.475L6.60813 20.4746Z" fill="#FFFEFD"/>
</svg>
