<svg width="42" height="41" viewBox="0 0 42 41" fill="none" xmlns="http://www.w3.org/2000/svg">
<path d="M2 2C2.52501 2 3.04218 2.21118 3.41602 2.58919L3.41536 2.58984C3.78841 2.96291 4 3.47227 4 4C4 4.5285 3.7883 5.04269 3.41081 5.41602L3.41016 5.41537C3.03656 5.78892 2.52426 6 2 6C1.4715 6 0.957313 5.7883 0.583984 5.41081L0.584635 5.41016C0.21108 5.03656 8.5234e-09 4.52426 0 4C0 3.47499 0.211185 2.95782 0.589193 2.58398L0.589844 2.58464C0.963443 2.21108 1.47574 2 2 2Z" fill="#FFFEFD"/>
<path d="M10 2C10.5285 2 11.0427 2.2117 11.416 2.58919L11.4154 2.58984C11.7884 2.96291 12 3.47227 12 4C12 4.5285 11.7883 5.04269 11.4108 5.41602L11.4102 5.41536C11.0368 5.78867 10.526 6 10 6C9.47499 6 8.95782 5.78882 8.58398 5.41081L8.58464 5.41016C8.21108 5.03656 8 4.52426 8 4C8 3.47499 8.21119 2.95782 8.58919 2.58398L8.58984 2.58464C8.96291 2.21159 9.47227 2 10 2Z" fill="white"/>
<path d="M18 2C18.525 2 19.0422 2.21118 19.416 2.58919L19.4154 2.58984C19.7884 2.96291 20 3.47227 20 4C20 4.5285 19.7883 5.04269 19.4108 5.41602L19.4102 5.41536C19.0366 5.78892 18.5243 6 18 6C17.4715 6 16.9573 5.7883 16.584 5.41081L16.5846 5.41016C16.2111 5.03656 16 4.52426 16 4C16 3.47499 16.2112 2.95782 16.5892 2.58398L16.5898 2.58464C16.9634 2.21108 17.4757 2 18 2Z" fill="#FFFEFD"/>
<path d="M8.8096 33.2833C8.304 33.2833 7.8296 33.0865 7.4744 32.7297L0.5528 25.8081C0.1968 25.4529 0 24.9785 0 24.4737C0 23.9689 0.1968 23.4937 0.5536 23.1385L7.4752 16.2169C7.8304 15.8609 8.3048 15.6641 8.8096 15.6641C9.8504 15.6641 10.6976 16.5113 10.6976 17.5521C10.6976 18.0577 10.5008 18.5321 10.144 18.8873L4.5576 24.4737L10.1448 30.0609C10.5016 30.4161 10.6976 30.8905 10.6976 31.3953C10.6976 32.4361 9.8504 33.2833 8.8096 33.2833Z" fill="#FFFEFD"/>
<path d="M31.6878 33.9131C30.647 33.9131 29.7998 33.0659 29.7998 32.0251C29.7998 31.5195 29.9966 31.0451 30.3534 30.6899L35.9398 25.1035L30.3526 19.5163C29.9966 19.1603 29.7998 18.6859 29.7998 18.1819C29.7998 17.1411 30.647 16.2939 31.6878 16.2939C32.1934 16.2939 32.6678 16.4907 33.023 16.8475L39.9446 23.7691C40.3014 24.1251 40.4974 24.5995 40.4974 25.1035C40.4974 25.6075 40.3006 26.0835 39.9438 26.4387L33.0222 33.3603C32.667 33.7171 32.1926 33.9131 31.6878 33.9131Z" fill="#FFFEFD"/>
<path d="M14.5853 38.9472C13.5445 38.9472 12.6973 38.1 12.6973 37.0592C12.6973 36.8088 12.7461 36.564 12.8421 36.332L24.1693 11.16C24.4653 10.4552 25.1493 10 25.9117 10C26.9525 10 27.7997 10.8472 27.7997 11.888C27.7997 12.1384 27.7509 12.3832 27.6549 12.6152L16.3269 37.788C16.0309 38.4928 15.3469 38.948 14.5845 38.948L14.5853 38.9472Z" fill="#FFFEFD"/>
</svg>
