<svg width="25" height="24" viewBox="0 0 25 24" fill="none" xmlns="http://www.w3.org/2000/svg">
<path d="M1.5 2C1.89376 2 2.28163 2.15839 2.56201 2.44189L2.56152 2.44238C2.84131 2.72219 3 3.1042 3 3.5C3 3.89637 2.84123 4.28202 2.55811 4.56201L2.55762 4.56152C2.27742 4.84169 1.89319 5 1.5 5C1.10363 5 0.717985 4.84123 0.437988 4.55811L0.438477 4.55762C0.15831 4.27742 6.39255e-09 3.8932 0 3.5C0 3.10624 0.158389 2.71837 0.441895 2.43799L0.442383 2.43848C0.722582 2.15831 1.10681 2 1.5 2Z" fill="white" fill-opacity="0.4"/>
<path d="M6.5 2C6.89637 2 7.28201 2.15877 7.56201 2.44189L7.56152 2.44238C7.84131 2.72219 8 3.1042 8 3.5C8 3.89637 7.84123 4.28201 7.55811 4.56201L7.55762 4.56152C7.27762 4.8415 6.8945 5 6.5 5C6.10624 5 5.71837 4.84161 5.43799 4.55811L5.43848 4.55762C5.15831 4.27742 5 3.89319 5 3.5C5 3.10624 5.15839 2.71837 5.44189 2.43799L5.44238 2.43848C5.72218 2.15869 6.1042 2 6.5 2Z" fill="white" fill-opacity="0.4"/>
<path d="M11.5 2C11.8938 2 12.2816 2.15839 12.562 2.44189L12.5615 2.44238C12.8413 2.72219 13 3.1042 13 3.5C13 3.89637 12.8412 4.28202 12.5581 4.56201L12.5576 4.56152C12.2774 4.84169 11.8932 5 11.5 5C11.1036 5 10.718 4.84123 10.438 4.55811L10.4385 4.55762C10.1583 4.27742 10 3.8932 10 3.5C10 3.10624 10.1584 2.71837 10.4419 2.43799L10.4424 2.43848C10.7226 2.15831 11.1068 2 11.5 2Z" fill="white" fill-opacity="0.4"/>
<path d="M4.603 20.4502C4.33882 20.4502 4.09095 20.345 3.90536 20.1542L0.288837 16.4528C0.102828 16.2629 0 16.0092 0 15.7393C0 15.4693 0.102828 15.2152 0.289255 15.0253L3.90577 11.3239C4.09137 11.1336 4.33924 11.0283 4.603 11.0283C5.14681 11.0283 5.58947 11.4814 5.58947 12.0379C5.58947 12.3083 5.48664 12.562 5.30022 12.7519L2.38134 15.7393L5.30063 18.727C5.48706 18.917 5.58947 19.1707 5.58947 19.4406C5.58947 19.9972 5.14681 20.4502 4.603 20.4502Z" fill="white" fill-opacity="0.4"/>
<path d="M18.6466 20.7881C18.1028 20.7881 17.6602 20.3351 17.6602 19.7785C17.6602 19.5081 17.763 19.2544 17.9494 19.0645L20.8683 16.0772L17.949 13.0894C17.763 12.899 17.6602 12.6453 17.6602 12.3758C17.6602 11.8193 18.1028 11.3662 18.6466 11.3662C18.9108 11.3662 19.1587 11.4715 19.3443 11.6622L22.9608 15.3636C23.1472 15.554 23.2496 15.8076 23.2496 16.0772C23.2496 16.3467 23.1468 16.6012 22.9604 16.7912L19.3439 20.4925C19.1583 20.6833 18.9104 20.7881 18.6466 20.7881Z" fill="white" fill-opacity="0.4"/>
<path d="M8.66616 23.4796C8.12235 23.4796 7.67969 23.0265 7.67969 22.47C7.67969 22.3361 7.70519 22.2052 7.75535 22.0811L13.6738 8.62031C13.8284 8.24342 14.1858 8 14.5842 8C15.128 8 15.5707 8.45304 15.5707 9.00961C15.5707 9.14351 15.5452 9.27442 15.495 9.39848L9.57615 22.8597C9.42149 23.2366 9.0641 23.48 8.66575 23.48L8.66616 23.4796Z" fill="white" fill-opacity="0.4"/>
</svg>
