<svg width="48" height="48" viewBox="0 0 48 48" fill="none" xmlns="http://www.w3.org/2000/svg">
<g clip-path="url(#clip0_328_953)">
<path d="M1.962 20.396L19.866 30.882C21.142 31.63 22.57 32.004 23.998 32.004C25.426 32.004 26.856 31.63 28.13 30.884L46.034 20.398C47.262 19.678 47.996 18.408 47.996 17.002C47.996 15.596 47.262 14.326 46.034 13.606L28.132 3.12003C25.582 1.62403 22.418 1.62603 19.866 3.12003L1.962 13.604C0.734003 14.324 3.34723e-06 15.594 3.34723e-06 17C3.34723e-06 18.406 0.734003 19.676 1.962 20.396ZM2.974 15.332L20.878 4.84403C21.84 4.28003 22.92 3.99803 24 3.99803C25.08 3.99803 26.158 4.28003 27.122 4.84403L45.026 15.33C45.638 15.686 46 16.31 46 16.998C46 17.686 45.636 18.31 45.026 18.666L27.122 29.154C25.196 30.28 22.806 30.282 20.88 29.154L2.974 18.668C2.362 18.312 2 17.688 2 17C2 16.312 2.364 15.688 2.974 15.332ZM47.862 26.036C48.142 26.514 47.98 27.126 47.502 27.404L27.59 39.01C26.486 39.672 25.244 40.004 24.002 40.004C22.76 40.004 21.508 39.67 20.396 39.004L0.496003 27.402C0.0200033 27.124 -0.141997 26.512 0.136003 26.034C0.414003 25.556 1.026 25.398 1.504 25.674L21.416 37.28C23.014 38.238 24.984 38.24 26.574 37.286L46.496 25.672C46.97 25.396 47.584 25.554 47.864 26.032L47.862 26.036ZM47.862 34.038C48.142 34.516 47.98 35.128 47.502 35.406L27.59 47.012C26.486 47.674 25.244 48.006 24.002 48.006C22.76 48.006 21.508 47.672 20.396 47.006L0.496003 35.406C0.0200033 35.128 -0.141997 34.516 0.136003 34.038C0.414003 33.56 1.026 33.4 1.504 33.678L21.416 45.284C23.014 46.242 24.984 46.244 26.574 45.29L46.496 33.676C46.97 33.398 47.584 33.558 47.864 34.036L47.862 34.038Z" fill="#FFFEFD"/>
</g>
<defs>
<clipPath id="clip0_328_953">
<rect width="48" height="48" fill="white"/>
</clipPath>
</defs>
</svg>
