<svg width="89" height="68" viewBox="0 0 89 68" fill="none" xmlns="http://www.w3.org/2000/svg">
<path fill-rule="evenodd" clip-rule="evenodd" d="M51.1707 0C53.6397 1.17406e-05 56.1088 0.130351 58.5779 0.390247C61.047 0.650159 63.4837 1.03981 65.8879 1.55963C70.1113 2.46931 73.9449 4.19126 77.3886 6.7253C80.8324 9.2594 83.5943 12.3458 85.6735 15.9845C87.7528 19.6232 88.7921 23.5547 88.7921 27.7783C88.7921 32.6516 87.3632 37.6875 84.5042 42.8857C81.6451 48.1489 77.9414 52.5674 73.393 56.1412C68.9095 59.65 63.8407 62.3137 58.1876 64.1331C52.5347 66.0174 46.5244 67.1219 40.1567 67.4468C29.3054 67.9666 21.5077 65.27 16.7643 59.357C11.0463 63.7755 6.8555 65.9851 4.19142 65.9851C2.76191 65.9851 1.68969 65.2703 0.974938 63.8408C0.325179 62.4762 0 60.9814 0 59.357C8.59729e-05 56.2381 1.20265 51.7548 3.60673 45.9071C6.46575 39.2793 9.09724 35.9653 11.5014 35.9653C12.736 35.9653 13.6779 37.9149 14.3276 41.8136C15.4322 47.6614 16.44 51.6897 17.3497 53.899C19.4939 51.6248 22.1578 48.5383 25.3416 44.6398C26.0983 43.7317 26.881 42.7792 27.6906 41.783V49.505C25.0557 52.2566 22.4212 54.7287 19.7863 56.9203L19.201 57.4078C21.2803 60.4618 23.7821 62.5739 26.7061 63.7435C29.6301 64.9131 32.879 65.4976 36.4528 65.4976C42.3656 65.4976 47.9862 64.5879 53.3143 62.7686C58.7074 61.0142 63.5485 58.3827 67.8371 54.8739C72.1906 51.3002 75.7646 46.9468 78.5587 41.8136C81.6126 36.2256 83.1396 30.8973 83.1396 25.8291C83.1396 22.3853 82.3919 19.1363 80.8974 16.0824C79.4029 12.9635 77.3888 10.2991 74.8547 8.08981C72.3856 5.88059 69.6237 4.45094 66.5698 3.80117C62.9961 3.02148 59.2599 2.63179 55.3614 2.63179C45.3548 2.63179 36.1281 4.9388 27.681 9.55222C18.7791 14.4255 14.3277 19.8834 14.3276 25.9263C14.3276 27.5507 14.8155 28.9474 15.7901 30.117C16.5698 31.0267 17.122 31.5467 17.4469 31.6766H16.8622C15.0429 31.3518 13.4835 30.4421 12.184 28.9476C10.8845 27.4532 10.2342 25.7964 10.2341 23.9771C10.2341 20.5983 11.2742 17.5119 13.3534 14.7179C15.4976 11.8589 18.584 9.25962 22.6126 6.92043C30.6698 2.30701 40.1894 0 51.1707 0ZM10.2341 42.1059C5.75077 48.5386 3.50884 54.1591 3.50883 58.9674C3.50883 60.9817 3.89922 62.7359 4.67889 64.2303C7.47287 62.9957 10.8516 60.4293 14.8151 56.5308C12.9308 53.4119 11.6967 50.7803 11.1118 48.6361C10.722 47.2066 10.4291 45.0298 10.2341 42.1059Z" fill="url(#paint0_linear_328_1260)"/>
<path fill-rule="evenodd" clip-rule="evenodd" d="M53.8179 13.3262C54.0828 13.3262 54.3101 13.3468 54.4366 13.3581C54.5062 13.3644 54.5324 13.3664 54.5563 13.3683H54.6487L54.7874 13.3826C56.555 13.5687 57.9056 14.2641 58.7436 15.3481C59.5179 16.3499 59.6437 17.4136 59.6437 18.0323C59.6437 18.2823 59.6246 18.4943 59.6002 18.6611C59.5978 18.6777 59.5939 18.6937 59.5914 18.7094C59.5282 19.5479 59.0187 20.1828 58.4642 20.5512C58.2528 20.6915 58.0291 20.7991 57.8027 20.8789L56.8773 21.057C56.8258 21.0594 56.7742 21.0624 56.7237 21.0624C56.1569 21.0624 55.4426 20.9098 54.8309 20.4302C54.1614 19.9049 53.8499 19.1701 53.8499 18.4511V18.2621C51.6859 18.2658 45.7948 18.854 39.4502 19.7122C39.8626 20.2688 39.9716 20.8714 39.9716 21.3405V21.3827C39.9715 21.6658 39.9064 21.8887 39.905 21.8939C39.8884 21.9568 39.8717 22.0057 39.8642 22.0279C39.8482 22.0753 39.8335 22.1128 39.8282 22.1265C39.8154 22.1588 39.8043 22.1867 39.7989 22.1992C39.7863 22.2287 39.7715 22.2612 39.7588 22.2896C39.7323 22.3493 39.6944 22.4331 39.6494 22.533C39.5575 22.7365 39.4254 23.0287 39.2598 23.3992C38.9286 24.1398 38.4627 25.1938 37.9245 26.4586C37.2648 28.009 36.4997 29.8694 35.7408 31.8507C35.997 31.7908 36.2495 31.733 36.4968 31.678C38.0211 31.3391 39.6178 31.0389 40.7344 31.0389C40.9811 31.0389 41.3629 31.0495 41.7638 31.1395C42.1519 31.2267 42.9114 31.4684 43.4349 32.1818L43.8401 32.7345V33.481C43.8401 34.014 43.6493 34.5609 43.2574 35.0128C42.8484 35.4842 42.1359 35.9265 41.1947 35.9265C40.7808 35.9265 40.4376 35.8319 40.1987 35.7409C39.7267 35.7924 38.8412 35.9372 37.6023 36.2039C36.4639 36.449 35.1634 36.7662 33.8704 37.1183C32.5383 41.1932 31.6249 44.8976 31.6248 47.052C31.6248 47.2415 31.6329 47.4064 31.6466 47.5476C31.6393 47.6175 31.6357 47.6885 31.6357 47.7604C31.6357 47.8067 31.6374 47.8529 31.6405 47.8984C31.6379 47.9373 31.6357 47.9765 31.6357 48.016C31.6357 48.136 31.6478 48.2533 31.6676 48.3675C31.6476 48.4822 31.6357 48.6 31.6357 48.7204C31.6357 48.8086 31.6432 48.8955 31.654 48.9808C31.6425 49.0682 31.6357 49.1573 31.6357 49.248C31.6357 49.3862 31.6496 49.5213 31.6758 49.6518C31.6497 49.7819 31.6357 49.9165 31.6357 50.0543C31.6357 50.1959 31.6503 50.3342 31.6778 50.4676C31.6662 50.5243 31.6576 50.582 31.6506 50.6403C32 54.0771 33.2187 56.8563 35.3084 58.9783C36.448 60.1355 37.7755 60.7889 39.2904 60.9384C40.4837 61.0394 41.2424 61.0226 41.5652 60.8874L41.1492 61.2973C39.625 62.3423 37.8749 62.7882 35.9005 62.6353C33.9261 62.4823 32.2996 61.758 31.0231 60.4618C28.6524 58.0544 27.2277 55.1254 26.7488 51.6758C26.6767 51.1421 26.6257 50.5974 26.5924 50.042C26.289 49.184 26.1967 48.2236 26.1967 47.3015C26.1967 45.1028 26.7234 42.2345 27.4735 39.3177C27.4543 39.3272 27.4349 39.3364 27.4164 39.3456C27.1989 39.4535 27.0355 39.5411 26.933 39.5978C26.8819 39.6261 26.8456 39.6468 26.8256 39.6583L26.8134 39.6651L26.6896 39.7406L26.555 39.8011C26.1172 40 25.7133 40.0442 25.5508 40.0588C25.3582 40.076 25.1858 40.0744 25.1524 40.0744C23.7577 40.0742 22.3683 39.1375 22.2827 37.6507L22.2786 37.5052L22.2874 37.3087C22.3704 36.3501 23.0391 35.7391 23.2175 35.5771L23.9239 34.9346H24.5473C24.5518 34.9332 24.5564 34.9319 24.5609 34.9305C24.801 34.8579 25.1633 34.7483 25.5991 34.6171C25.9676 34.5062 26.3956 34.3785 26.8684 34.2391C25.5387 30.7229 22.5594 28.3586 20.1044 26.4566C19.4405 25.9608 18.5641 25.3489 17.9573 24.8153C17.4001 24.3253 16.3814 23.3415 16.3814 21.9245V21.7559L16.3895 21.6703C16.4805 20.6203 17.2164 19.9564 17.6072 19.6578C18.0588 19.3128 18.5925 19.0432 19.0873 18.8304C20.0941 18.3974 21.4171 17.9981 22.8728 17.6291C25.815 16.8833 29.7169 16.1609 33.7345 15.531C41.7183 14.2792 50.5964 13.3262 53.8179 13.3262ZM34.3348 20.4512C30.6309 21.0226 27.1639 21.6431 24.5936 22.2393C24.0368 22.3685 23.5362 22.4934 23.0944 22.6126L23.3467 22.805L23.348 22.8056C25.3052 24.2975 28.3182 26.5659 30.3772 29.9899C31.0436 28.1631 31.7088 26.4901 32.2931 25.0927C32.8265 23.8173 33.2939 22.764 33.6325 22.0231C33.8016 21.6531 33.9402 21.3578 34.0397 21.1502C34.0705 21.086 34.0992 21.0281 34.124 20.9775C34.1807 20.7984 34.2508 20.6218 34.3348 20.4512Z" fill="url(#paint1_linear_328_1260)"/>
<circle cx="44.8505" cy="59.232" r="2.03817" fill="url(#paint2_linear_328_1260)"/>
<circle cx="58.4156" cy="54.8267" r="2.03817" fill="url(#paint3_linear_328_1260)"/>
<circle cx="51.6033" cy="57.1939" r="2.03817" fill="url(#paint4_linear_328_1260)"/>
<defs>
<linearGradient id="paint0_linear_328_1260" x1="-2.02288e-07" y1="5.75772" x2="94.3022" y2="24.2416" gradientUnits="userSpaceOnUse">
<stop stop-color="#FDF0E6"/>
<stop offset="0.495192" stop-color="#FFFEFD"/>
<stop offset="1" stop-color="#FDF0E6"/>
</linearGradient>
<linearGradient id="paint1_linear_328_1260" x1="16.3814" y1="17.5341" x2="63.2926" y2="23.6642" gradientUnits="userSpaceOnUse">
<stop stop-color="#FDF0E6"/>
<stop offset="0.495192" stop-color="#FFFEFD"/>
<stop offset="1" stop-color="#FDF0E6"/>
</linearGradient>
<linearGradient id="paint2_linear_328_1260" x1="42.8123" y1="57.5415" x2="47.2103" y2="58.1969" gradientUnits="userSpaceOnUse">
<stop stop-color="#FDF0E6"/>
<stop offset="0.495192" stop-color="#FFFEFD"/>
<stop offset="1" stop-color="#FDF0E6"/>
</linearGradient>
<linearGradient id="paint3_linear_328_1260" x1="56.3775" y1="53.1362" x2="60.7754" y2="53.7916" gradientUnits="userSpaceOnUse">
<stop stop-color="#FDF0E6"/>
<stop offset="0.495192" stop-color="#FFFEFD"/>
<stop offset="1" stop-color="#FDF0E6"/>
</linearGradient>
<linearGradient id="paint4_linear_328_1260" x1="49.5651" y1="55.8595" x2="53.9068" y2="56.3413" gradientUnits="userSpaceOnUse">
<stop stop-color="#EF6500"/>
<stop offset="0.341346" stop-color="#F0AC79"/>
<stop offset="0.668269" stop-color="#F0AC79"/>
<stop offset="1" stop-color="#EF6500"/>
</linearGradient>
</defs>
</svg>
