<svg width="45" height="35" viewBox="0 0 45 35" fill="none" xmlns="http://www.w3.org/2000/svg">
<path fill-rule="evenodd" clip-rule="evenodd" d="M25.8939 0C27.1433 6.04102e-06 28.3927 0.0670712 29.6422 0.200799C30.8916 0.334534 32.1247 0.535028 33.3412 0.802495C35.4784 1.27056 37.4183 2.15658 39.161 3.46045C40.9036 4.76435 42.3012 6.35243 43.3534 8.2247C44.4056 10.097 44.9315 12.1199 44.9315 14.2931C44.9315 16.8006 44.2084 19.3918 42.7616 22.0665C41.3149 24.7746 39.4407 27.0482 37.1391 28.887C34.8703 30.6924 32.3053 32.063 29.4447 32.9992C26.5841 33.9687 23.5427 34.5371 20.3205 34.7042C14.8294 34.9717 10.8835 33.5841 8.48324 30.5417C5.58975 32.8152 3.46909 33.9521 2.12098 33.9521C1.39761 33.9521 0.855036 33.5843 0.493348 32.8488C0.16455 32.1467 0 31.3775 0 30.5417C4.35049e-05 28.9369 0.608579 26.63 1.82511 23.6211C3.27186 20.2109 4.60348 18.5057 5.82006 18.5057C6.44479 18.5057 6.92141 19.5088 7.25022 21.5148C7.80918 24.5238 8.31914 26.5965 8.77946 27.7333C9.8645 26.5631 11.2125 24.975 12.8236 22.969C13.2065 22.5018 13.6026 22.0117 14.0123 21.4991V25.4724C12.6789 26.8882 11.3458 28.1602 10.0125 29.2879L9.71627 29.5387C10.7685 31.1101 12.0345 32.1969 13.5141 32.7987C14.9937 33.4005 16.6378 33.7013 18.4462 33.7013C21.4383 33.7013 24.2825 33.2332 26.9786 32.2971C29.7077 31.3944 32.1575 30.0404 34.3276 28.2349C36.5306 26.3961 38.3392 24.1561 39.753 21.5148C41.2984 18.6396 42.0711 15.8979 42.0712 13.2901C42.0712 11.5182 41.6928 9.84644 40.9365 8.27507C40.1803 6.67025 39.1611 5.2993 37.8787 4.16255C36.6293 3.02581 35.2317 2.2902 33.6863 1.95586C31.8779 1.55468 29.9873 1.35417 28.0145 1.35417C22.9509 1.35417 18.2819 2.54122 14.0074 4.91502C9.50278 7.42255 7.25022 10.2308 7.25022 13.3402C7.25022 14.176 7.49707 14.8947 7.99024 15.4965C8.3848 15.9645 8.66425 16.2321 8.82866 16.299H8.53279C7.61215 16.1318 6.82308 15.6637 6.16547 14.8948C5.50787 14.1258 5.17879 13.2733 5.17878 12.3372C5.17878 10.5987 5.70506 9.01061 6.75722 7.57298C7.84227 6.1019 9.40406 4.76446 11.4426 3.56085C15.5198 1.18705 20.337 0 25.8939 0ZM5.17878 21.6653C2.91006 24.9752 1.77558 27.8672 1.77557 30.3412C1.77557 31.3776 1.97312 32.2803 2.36766 33.0492C3.7815 32.4139 5.49124 31.0934 7.49689 29.0875C6.54339 27.4827 5.91886 26.1286 5.62293 25.0253C5.42565 24.2898 5.27742 23.1697 5.17878 21.6653Z" fill="url(#paint0_linear_328_917)"/>
<path fill-rule="evenodd" clip-rule="evenodd" d="M27.2334 6.85689C27.3675 6.8569 27.4825 6.86748 27.5465 6.87333C27.5817 6.87655 27.595 6.87761 27.6071 6.87858H27.6539L27.724 6.88592C28.6185 6.98165 29.3019 7.33951 29.726 7.89726C30.1178 8.41272 30.1815 8.96002 30.1815 9.27836C30.1815 9.40704 30.1718 9.51613 30.1595 9.60195C30.1582 9.61046 30.1563 9.61873 30.155 9.62679C30.123 10.0582 29.8652 10.3849 29.5846 10.5745C29.4776 10.6467 29.3644 10.702 29.2498 10.7431L28.7816 10.8347C28.7555 10.836 28.7294 10.8375 28.7038 10.8375C28.4171 10.8375 28.0556 10.759 27.7461 10.5122C27.4072 10.2419 27.2496 9.86383 27.2496 9.49386V9.39661C26.1546 9.39853 23.1735 9.7012 19.9629 10.1428C20.1717 10.4292 20.2268 10.7392 20.2268 10.9806V11.0023C20.2268 11.148 20.1938 11.2626 20.1931 11.2654C20.1847 11.2977 20.1762 11.3229 20.1724 11.3343C20.1643 11.3587 20.1569 11.378 20.1542 11.385C20.1478 11.4017 20.1421 11.416 20.1394 11.4224C20.133 11.4376 20.1255 11.4543 20.1191 11.469C20.1057 11.4997 20.0865 11.5428 20.0637 11.5942C20.0173 11.6989 19.9504 11.8492 19.8666 12.0399C19.699 12.421 19.4632 12.9633 19.1909 13.6141C18.8571 14.4118 18.4699 15.3691 18.0859 16.3885C18.2155 16.3577 18.3433 16.3279 18.4684 16.2997C19.2398 16.1253 20.0478 15.9709 20.6128 15.9708C20.7376 15.9708 20.9308 15.9763 21.1337 16.0226C21.3301 16.0675 21.7144 16.1918 21.9793 16.5589L22.1844 16.8433V17.2274C22.1844 17.5017 22.0878 17.7831 21.8895 18.0156C21.6826 18.2581 21.322 18.4857 20.8457 18.4857C20.6363 18.4857 20.4626 18.437 20.3417 18.3902C20.1028 18.4167 19.6548 18.4912 19.0278 18.6284C18.4518 18.7546 17.7937 18.9178 17.1394 19.099C16.4653 21.1957 16.0031 23.1017 16.0031 24.2102C16.0031 24.3078 16.0072 24.3926 16.0141 24.4652C16.0104 24.5012 16.0086 24.5378 16.0086 24.5747C16.0086 24.5986 16.0094 24.6223 16.011 24.6458C16.0097 24.6658 16.0086 24.6859 16.0086 24.7063C16.0086 24.768 16.0147 24.8283 16.0247 24.8871C16.0146 24.9461 16.0086 25.0067 16.0086 25.0687C16.0086 25.1141 16.0124 25.1588 16.0179 25.2027C16.012 25.2477 16.0086 25.2935 16.0086 25.3402C16.0086 25.4113 16.0156 25.4808 16.0289 25.5479C16.0157 25.6149 16.0086 25.6841 16.0086 25.755C16.0086 25.8279 16.016 25.8991 16.0299 25.9677C16.024 25.9969 16.0196 26.0266 16.0161 26.0566C16.1929 27.8249 16.8096 29.255 17.8671 30.3468C18.4438 30.9422 19.1155 31.2784 19.8821 31.3554C20.4859 31.4073 20.8698 31.3987 21.0332 31.3291L20.8227 31.5401C20.0514 32.0778 19.1658 32.3072 18.1667 32.2285C17.1676 32.1498 16.3445 31.7771 15.6986 31.1101C14.499 29.8714 13.778 28.3643 13.5356 26.5894C13.4992 26.3148 13.4733 26.0345 13.4565 25.7487C13.303 25.3072 13.2563 24.8131 13.2563 24.3386C13.2563 23.2073 13.5228 21.7314 13.9024 20.2306C13.8926 20.2355 13.8828 20.2403 13.8735 20.245C13.7634 20.3005 13.6807 20.3456 13.6289 20.3748C13.603 20.3893 13.5846 20.3999 13.5745 20.4059L13.5683 20.4094L13.5057 20.4482L13.4376 20.4794C13.2161 20.5817 13.0117 20.6045 12.9294 20.6119C12.832 20.6208 12.7448 20.62 12.7278 20.62C12.0221 20.6199 11.319 20.1379 11.2757 19.3729L11.2736 19.298L11.2781 19.1969C11.32 18.7037 11.6585 18.3893 11.7487 18.3059L12.1062 17.9753H12.4216C12.4239 17.9746 12.4262 17.9739 12.4285 17.9732C12.55 17.9359 12.7333 17.8795 12.9539 17.812C13.1403 17.7549 13.3569 17.6892 13.5962 17.6175C12.9233 15.8083 11.4157 14.5917 10.1734 13.613C9.83746 13.358 9.39394 13.0431 9.0869 12.7686C8.80493 12.5164 8.28943 12.0102 8.28943 11.2811V11.1943L8.29356 11.1503C8.33957 10.61 8.71199 10.2684 8.90973 10.1148C9.13826 9.93726 9.40834 9.79856 9.65869 9.68906C10.1682 9.46624 10.8376 9.26081 11.5743 9.07092C13.0631 8.68716 15.0376 8.3155 17.0706 7.99136C21.1107 7.34724 25.6032 6.85691 27.2334 6.85689ZM17.3744 10.523C15.5001 10.817 13.7457 11.1363 12.445 11.4431C12.1633 11.5095 11.91 11.5738 11.6864 11.6351L11.8141 11.7341L11.8148 11.7345C12.8052 12.5021 14.3298 13.6693 15.3718 15.4311C15.709 14.4911 16.0456 13.6303 16.3413 12.9113C16.6112 12.255 16.8477 11.7131 17.019 11.3318C17.1046 11.1414 17.1747 10.9895 17.2251 10.8827C17.2406 10.8496 17.2552 10.8198 17.2677 10.7938C17.2964 10.7016 17.3319 10.6108 17.3744 10.523Z" fill="url(#paint1_linear_328_917)"/>
<ellipse cx="22.6957" cy="30.4774" rx="1.03138" ry="1.04873" fill="url(#paint2_linear_328_917)"/>
<ellipse cx="29.5601" cy="28.2107" rx="1.03138" ry="1.04873" fill="url(#paint3_linear_328_917)"/>
<ellipse cx="26.1128" cy="29.4287" rx="1.03138" ry="1.04873" fill="#EF6500"/>
<defs>
<linearGradient id="paint0_linear_328_917" x1="-1.02364e-07" y1="2.96259" x2="47.7778" y2="12.1724" gradientUnits="userSpaceOnUse">
<stop stop-color="#FDF0E6"/>
<stop offset="0.495192" stop-color="#FFFEFD"/>
<stop offset="1" stop-color="#FDF0E6"/>
</linearGradient>
<linearGradient id="paint1_linear_328_917" x1="8.28943" y1="9.02205" x2="32.041" y2="12.0744" gradientUnits="userSpaceOnUse">
<stop stop-color="#FDF0E6"/>
<stop offset="0.495192" stop-color="#FFFEFD"/>
<stop offset="1" stop-color="#FDF0E6"/>
</linearGradient>
<linearGradient id="paint2_linear_328_917" x1="21.6643" y1="29.6076" x2="23.8914" y2="29.934" gradientUnits="userSpaceOnUse">
<stop stop-color="#FDF0E6"/>
<stop offset="0.495192" stop-color="#FFFEFD"/>
<stop offset="1" stop-color="#FDF0E6"/>
</linearGradient>
<linearGradient id="paint3_linear_328_917" x1="28.5287" y1="27.3408" x2="30.7558" y2="27.6672" gradientUnits="userSpaceOnUse">
<stop stop-color="#FDF0E6"/>
<stop offset="0.495192" stop-color="#FFFEFD"/>
<stop offset="1" stop-color="#FDF0E6"/>
</linearGradient>
</defs>
</svg>
