<svg width="16" height="16" viewBox="0 0 16 16" fill="none" xmlns="http://www.w3.org/2000/svg">
<g clip-path="url(#clip0_722_100)">
<path d="M14.3508 5.52242L9.29147 0.585751C8.85214 0.145751 8.22014 -0.0695822 7.60614 0.0184178L3.01414 0.646418C2.64947 0.696418 2.39414 1.03242 2.44414 1.39708C2.49414 1.76175 2.82947 2.01642 3.19547 1.96708L7.78814 1.33908C7.99214 1.31108 8.20281 1.38108 8.35547 1.53375L13.4155 6.47042C14.1121 7.16709 14.1801 8.25708 13.6308 9.03509C13.4748 8.72375 13.2821 8.42708 13.0235 8.16842L8.04014 3.22708C7.60147 2.78842 6.97547 2.57708 6.35481 2.65975L1.76214 3.28775C1.45947 3.32908 1.22347 3.57108 1.19014 3.87508L0.680139 8.48575C0.613473 9.09309 0.822806 9.68842 1.25614 10.1211L6.20014 15.0231C6.82947 15.6531 7.66614 15.9991 8.55614 15.9991H8.56747C9.46214 15.9964 10.3008 15.6444 10.9295 15.0078L13.0408 12.8691C13.6588 12.2431 13.9695 11.4298 13.9895 10.6104L14.3741 10.2264C15.6575 8.92642 15.6501 6.81842 14.3528 5.52175L14.3508 5.52242ZM4.00014 6.66642C3.63214 6.66642 3.33347 6.36775 3.33347 5.99975C3.33747 5.12775 4.66281 5.12842 4.66681 5.99975C4.66681 6.36775 4.36814 6.66642 4.00014 6.66642Z" fill="black"/>
</g>
<defs>
<clipPath id="clip0_722_100">
<rect width="16" height="16" fill="white"/>
</clipPath>
</defs>
</svg>
