<svg width="16" height="16" viewBox="0 0 16 16" fill="none" xmlns="http://www.w3.org/2000/svg">
<g clip-path="url(#clip0_722_88)">
<path d="M14.9897 7.31669L7.99968 11.5114L1.00967 7.31669C0.858059 7.22572 0.676516 7.1987 0.504982 7.24159C0.333449 7.28447 0.185977 7.39374 0.0950075 7.54535C0.00403825 7.69697 -0.0229762 7.87851 0.0199072 8.05005C0.0627905 8.22158 0.172059 8.36905 0.323674 8.46002L7.65701 12.86C7.7607 12.9223 7.87938 12.9552 8.00034 12.9552C8.1213 12.9552 8.23999 12.9223 8.34368 12.86L15.677 8.46002C15.8286 8.36905 15.9379 8.22158 15.9808 8.05005C16.0237 7.87851 15.9966 7.69697 15.9057 7.54535C15.8147 7.39374 15.6672 7.28447 15.4957 7.24159C15.3242 7.1987 15.1426 7.22572 14.991 7.31669H14.9897Z" fill="black"/>
<path d="M14.9897 10.3616L7.99967 14.5556L1.00967 10.3616C0.9346 10.3166 0.851391 10.2867 0.764795 10.2739C0.6782 10.261 0.589915 10.2653 0.50498 10.2865C0.420046 10.3077 0.340125 10.3455 0.269781 10.3976C0.199438 10.4497 0.140049 10.5152 0.0950055 10.5903C0.0499621 10.6653 0.0201464 10.7486 0.00726063 10.8352C-0.00562511 10.9217 -0.00132848 11.01 0.0199052 11.095C0.0627885 11.2665 0.172057 11.414 0.323672 11.5049L7.65701 15.9049C7.76069 15.9672 7.87938 16.0001 8.00034 16.0001C8.1213 16.0001 8.23998 15.9672 8.34367 15.9049L15.677 11.5049C15.8286 11.414 15.9379 11.2665 15.9808 11.095C16.0237 10.9234 15.9966 10.7419 15.9057 10.5903C15.8147 10.4387 15.6672 10.3294 15.4957 10.2865C15.3242 10.2436 15.1426 10.2706 14.991 10.3616H14.9897Z" fill="black"/>
<path d="M0.323122 5.57104L6.97912 9.56504C7.2873 9.75044 7.64015 9.84839 7.99979 9.84839C8.35943 9.84839 8.71228 9.75044 9.02046 9.56504L15.6765 5.57104C15.775 5.51178 15.8566 5.42801 15.9132 5.3279C15.9698 5.22779 15.9996 5.11473 15.9996 4.99971C15.9996 4.8847 15.9698 4.77164 15.9132 4.67152C15.8566 4.57141 15.775 4.48765 15.6765 4.42838L9.02046 0.434378C8.71221 0.249198 8.35939 0.151367 7.99979 0.151367C7.64019 0.151367 7.28737 0.249198 6.97912 0.434378L0.323122 4.42838C0.224554 4.48765 0.142996 4.57141 0.0863762 4.67152C0.0297562 4.77164 0 4.8847 0 4.99971C0 5.11473 0.0297562 5.22779 0.0863762 5.3279C0.142996 5.42801 0.224554 5.51178 0.323122 5.57104Z" fill="black"/>
</g>
<defs>
<clipPath id="clip0_722_88">
<rect width="16" height="16" fill="white"/>
</clipPath>
</defs>
</svg>
