<svg width="16" height="16" viewBox="0 0 16 16" fill="none" xmlns="http://www.w3.org/2000/svg">
<g clip-path="url(#clip0_689_485)">
<path d="M4.66667 0H2.66667C1.95942 0 1.28115 0.280952 0.781049 0.781049C0.280952 1.28115 0 1.95942 0 2.66667L0 4.66667C0 5.37391 0.280952 6.05219 0.781049 6.55229C1.28115 7.05238 1.95942 7.33333 2.66667 7.33333H4.66667C5.37391 7.33333 6.05219 7.05238 6.55229 6.55229C7.05238 6.05219 7.33333 5.37391 7.33333 4.66667V2.66667C7.33333 1.95942 7.05238 1.28115 6.55229 0.781049C6.05219 0.280952 5.37391 0 4.66667 0ZM6 4.66667C6 5.02029 5.85952 5.35943 5.60948 5.60948C5.35943 5.85952 5.02029 6 4.66667 6H2.66667C2.31304 6 1.97391 5.85952 1.72386 5.60948C1.47381 5.35943 1.33333 5.02029 1.33333 4.66667V2.66667C1.33333 2.31304 1.47381 1.97391 1.72386 1.72386C1.97391 1.47381 2.31304 1.33333 2.66667 1.33333H4.66667C5.02029 1.33333 5.35943 1.47381 5.60948 1.72386C5.85952 1.97391 6 2.31304 6 2.66667V4.66667Z" fill="black"/>
<path d="M4.66667 8.66666H2.66667C1.95942 8.66666 1.28115 8.94761 0.781049 9.4477C0.280952 9.9478 0 10.6261 0 11.3333L0 13.3333C0 14.0406 0.280952 14.7188 0.781049 15.2189C1.28115 15.719 1.95942 16 2.66667 16H4.66667C5.37391 16 6.05219 15.719 6.55229 15.2189C7.05238 14.7188 7.33333 14.0406 7.33333 13.3333V11.3333C7.33333 10.6261 7.05238 9.9478 6.55229 9.4477C6.05219 8.94761 5.37391 8.66666 4.66667 8.66666ZM6 13.3333C6 13.6869 5.85952 14.0261 5.60948 14.2761C5.35943 14.5262 5.02029 14.6667 4.66667 14.6667H2.66667C2.31304 14.6667 1.97391 14.5262 1.72386 14.2761C1.47381 14.0261 1.33333 13.6869 1.33333 13.3333V11.3333C1.33333 10.9797 1.47381 10.6406 1.72386 10.3905C1.97391 10.1405 2.31304 9.99999 2.66667 9.99999H4.66667C5.02029 9.99999 5.35943 10.1405 5.60948 10.3905C5.85952 10.6406 6 10.9797 6 11.3333V13.3333Z" fill="black"/>
<path d="M13.3332 8.66666H11.3332C10.6259 8.66666 9.94765 8.94761 9.44755 9.4477C8.94746 9.9478 8.6665 10.6261 8.6665 11.3333V13.3333C8.6665 14.0406 8.94746 14.7188 9.44755 15.2189C9.94765 15.719 10.6259 16 11.3332 16H13.3332C14.0404 16 14.7187 15.719 15.2188 15.2189C15.7189 14.7188 15.9998 14.0406 15.9998 13.3333V11.3333C15.9998 10.6261 15.7189 9.9478 15.2188 9.4477C14.7187 8.94761 14.0404 8.66666 13.3332 8.66666ZM14.6665 13.3333C14.6665 13.6869 14.526 14.0261 14.276 14.2761C14.0259 14.5262 13.6868 14.6667 13.3332 14.6667H11.3332C10.9795 14.6667 10.6404 14.5262 10.3904 14.2761C10.1403 14.0261 9.99984 13.6869 9.99984 13.3333V11.3333C9.99984 10.9797 10.1403 10.6406 10.3904 10.3905C10.6404 10.1405 10.9795 9.99999 11.3332 9.99999H13.3332C13.6868 9.99999 14.0259 10.1405 14.276 10.3905C14.526 10.6406 14.6665 10.9797 14.6665 11.3333V13.3333Z" fill="black"/>
<path d="M9.33317 4.66666H11.3332V6.66666C11.3332 6.84347 11.4034 7.01304 11.5284 7.13806C11.6535 7.26309 11.823 7.33332 11.9998 7.33332C12.1766 7.33332 12.3462 7.26309 12.4712 7.13806C12.5963 7.01304 12.6665 6.84347 12.6665 6.66666V4.66666H14.6665C14.8433 4.66666 15.0129 4.59642 15.1379 4.47139C15.2629 4.34637 15.3332 4.1768 15.3332 3.99999C15.3332 3.82318 15.2629 3.65361 15.1379 3.52859C15.0129 3.40356 14.8433 3.33332 14.6665 3.33332H12.6665V1.33332C12.6665 1.15651 12.5963 0.986943 12.4712 0.861919C12.3462 0.736894 12.1766 0.666656 11.9998 0.666656C11.823 0.666656 11.6535 0.736894 11.5284 0.861919C11.4034 0.986943 11.3332 1.15651 11.3332 1.33332V3.33332H9.33317C9.15636 3.33332 8.98679 3.40356 8.86177 3.52859C8.73674 3.65361 8.6665 3.82318 8.6665 3.99999C8.6665 4.1768 8.73674 4.34637 8.86177 4.47139C8.98679 4.59642 9.15636 4.66666 9.33317 4.66666Z" fill="black"/>
</g>
<defs>
<clipPath id="clip0_689_485">
<rect width="16" height="16" fill="white"/>
</clipPath>
</defs>
</svg>
