<svg width="16" height="16" viewBox="0 0 16 16" fill="none" xmlns="http://www.w3.org/2000/svg">
<g clip-path="url(#clip0_722_60)">
<path d="M2.66666 0H4.66666C6.13941 0 7.33331 1.19391 7.33331 2.66666V4.66666C7.33331 6.13941 6.13941 7.33331 4.66666 7.33331H2.66666C1.19391 7.33334 0 6.13944 0 4.66666V2.66666C0 1.19391 1.19391 0 2.66666 0Z" fill="black"/>
<path d="M2.66666 8.66699H4.66666C6.13941 8.66699 7.33331 9.8609 7.33331 11.3336V13.3336C7.33331 14.8064 6.13941 16.0003 4.66666 16.0003H2.66666C1.19391 16.0003 0 14.8064 0 13.3337V11.3337C0 9.8609 1.19391 8.66699 2.66666 8.66699Z" fill="black"/>
<path d="M11.3336 8.66699H13.3336C14.8064 8.66699 16.0003 9.8609 16.0003 11.3336V13.3336C16.0003 14.8064 14.8064 16.0003 13.3336 16.0003H11.3336C9.8609 16.0003 8.66699 14.8064 8.66699 13.3337V11.3337C8.66696 9.8609 9.86087 8.66699 11.3336 8.66699Z" fill="black"/>
<path d="M9.33365 4.66696H11.3336V6.66696C11.3336 7.03515 11.6321 7.33362 12.0003 7.33362C12.3685 7.33362 12.667 7.03515 12.667 6.66696V4.66696H14.667C15.0351 4.66696 15.3336 4.36849 15.3336 4.0003C15.3336 3.63212 15.0351 3.33365 14.667 3.33365H12.667V1.33365C12.667 0.965461 12.3685 0.666992 12.0003 0.666992C11.6321 0.666992 11.3336 0.965461 11.3336 1.33365V3.33365H9.33365C8.96546 3.33365 8.66699 3.63212 8.66699 4.0003C8.66699 4.36849 8.96546 4.66696 9.33365 4.66696Z" fill="black"/>
</g>
<defs>
<clipPath id="clip0_722_60">
<rect width="16" height="16" fill="white"/>
</clipPath>
</defs>
</svg>
