<svg width="32" height="40" viewBox="0 0 32 40" fill="none" xmlns="http://www.w3.org/2000/svg">
<g opacity="0.6">
<path d="M30 17.5H2C0.895437 17.5 0 18.6193 0 20C0 21.3807 0.895437 22.5 2 22.5H30C31.1046 22.5 32 21.3807 32 20C32 18.6193 31.1046 17.5 30 17.5Z" fill="black"/>
<path d="M2 10.8334H30C31.1046 10.8334 32 9.71408 32 8.33337C32 6.95267 31.1046 5.83337 30 5.83337H2C0.895437 5.83337 0 6.95267 0 8.33337C0 9.71408 0.895437 10.8334 2 10.8334Z" fill="black"/>
<path d="M30 29.1667H2C0.895437 29.1667 0 30.286 0 31.6667C0 33.0474 0.895437 34.1667 2 34.1667H30C31.1046 34.1667 32 33.0474 32 31.6667C32 30.286 31.1046 29.1667 30 29.1667Z" fill="black"/>
</g>
</svg>
