<svg width="16" height="16" viewBox="0 0 16 16" fill="none" xmlns="http://www.w3.org/2000/svg">
<g clip-path="url(#clip0_689_519)">
<path d="M14.9902 7.31666L8.00016 11.5113L1.01016 7.31666C0.858547 7.22569 0.677004 7.19867 0.505471 7.24156C0.333937 7.28444 0.186465 7.39371 0.0954958 7.54532C0.00452654 7.69694 -0.0224879 7.87848 0.0203955 8.05002C0.0632788 8.22155 0.172547 8.36902 0.324163 8.45999L7.6575 12.86C7.76118 12.9223 7.87987 12.9552 8.00083 12.9552C8.12179 12.9552 8.24048 12.9223 8.34416 12.86L15.6775 8.45999C15.8291 8.36902 15.9384 8.22155 15.9813 8.05002C16.0241 7.87848 15.9971 7.69694 15.9062 7.54532C15.8152 7.39371 15.6677 7.28444 15.4962 7.24156C15.3247 7.19867 15.1431 7.22569 14.9915 7.31666H14.9902Z" fill="black"/>
<path d="M14.9902 10.362L8.00016 14.556L1.01016 10.362C0.935088 10.317 0.851879 10.2871 0.765284 10.2743C0.678689 10.2614 0.590403 10.2657 0.505469 10.2869C0.420534 10.3081 0.340613 10.3459 0.27027 10.398C0.199926 10.4501 0.140537 10.5156 0.0954938 10.5907C0.0504504 10.6657 0.0206347 10.749 0.00774891 10.8355C-0.00513682 10.9221 -0.000840201 11.0104 0.0203935 11.0954C0.0632768 11.2669 0.172545 11.4144 0.32416 11.5053L7.65749 15.9053C7.76118 15.9676 7.87987 16.0005 8.00083 16.0005C8.12179 16.0005 8.24047 15.9676 8.34416 15.9053L15.6775 11.5053C15.8291 11.4144 15.9384 11.2669 15.9813 11.0954C16.0241 10.9238 15.9971 10.7423 15.9062 10.5907C15.8152 10.4391 15.6677 10.3298 15.4962 10.2869C15.3247 10.244 15.1431 10.271 14.9915 10.362H14.9902Z" fill="black"/>
<path d="M7.99979 9.84865C7.64018 9.84846 7.28738 9.75052 6.97912 9.56532L0.323122 5.57132C0.224554 5.51205 0.142996 5.42829 0.0863762 5.32817C0.0297562 5.22806 0 5.115 0 4.99999C0 4.88497 0.0297562 4.77191 0.0863762 4.6718C0.142996 4.57168 0.224554 4.48792 0.323122 4.42865L6.97912 0.434653C7.28737 0.249472 7.64019 0.151642 7.99979 0.151642C8.35939 0.151642 8.71221 0.249472 9.02046 0.434653L15.6765 4.42865C15.775 4.48792 15.8566 4.57168 15.9132 4.6718C15.9698 4.77191 15.9996 4.88497 15.9996 4.99999C15.9996 5.115 15.9698 5.22806 15.9132 5.32817C15.8566 5.42829 15.775 5.51205 15.6765 5.57132L9.02046 9.56532C8.7122 9.75052 8.3594 9.84846 7.99979 9.84865ZM1.96246 4.99999L7.66646 8.42199C7.7672 8.48225 7.8824 8.51407 7.99979 8.51407C8.11718 8.51407 8.23238 8.48225 8.33312 8.42199L14.0371 4.99999L8.33312 1.57799C8.23238 1.51772 8.11718 1.4859 7.99979 1.4859C7.8824 1.4859 7.7672 1.51772 7.66646 1.57799L1.96246 4.99999Z" fill="black"/>
</g>
<defs>
<clipPath id="clip0_689_519">
<rect width="16" height="16" fill="white"/>
</clipPath>
</defs>
</svg>
