<svg width="16" height="16" viewBox="0 0 16 16" fill="none" xmlns="http://www.w3.org/2000/svg">
<g clip-path="url(#clip0_689_623)">
<path d="M16 6V12.6667C16 14.5047 14.5047 16 12.6667 16H3.33333C1.49533 16 0 14.5047 0 12.6667V6C0 4.162 1.49533 2.66667 3.33333 2.66667H6V2C6 0.897333 6.89733 0 8 0C9.10267 0 10 0.897333 10 2V2.66667H12.6667C14.5047 2.66667 16 4.162 16 6ZM7.33333 4.66667H8.66733V2C8.66667 1.632 8.36733 1.33333 8 1.33333C7.63267 1.33333 7.33333 1.632 7.33333 2V4.66667ZM6.33333 8.33333C6.33333 9.25267 7.08067 10 8 10C8.91933 10 9.66667 9.25267 9.66667 8.33333C9.66667 7.414 8.91933 6.66667 8 6.66667C7.08067 6.66667 6.33333 7.414 6.33333 8.33333ZM11.312 13.1673C10.9393 11.718 9.54667 10.6667 8 10.6667C6.45333 10.6667 5.06 11.718 4.688 13.1673C4.596 13.524 4.81067 13.8873 5.16733 13.9793C5.52533 14.072 5.88733 13.8553 5.97867 13.4993C6.19867 12.6447 7.06733 12 8 12C8.93267 12 9.80133 12.6447 10.0213 13.4993C10.0987 13.8 10.3693 14 10.6667 14C10.7213 14 10.7773 13.9933 10.8333 13.9793C11.19 13.8873 11.404 13.524 11.312 13.1673Z" fill="black"/>
</g>
<defs>
<clipPath id="clip0_689_623">
<rect width="16" height="16" fill="white"/>
</clipPath>
</defs>
</svg>
