<svg width="16" height="16" viewBox="0 0 16 16" fill="none" xmlns="http://www.w3.org/2000/svg">
<g clip-path="url(#clip0_799_109)">
<path d="M6 8C8.206 8 10 6.206 10 4C10 1.794 8.206 0 6 0C3.794 0 2 1.794 2 4C2 6.206 3.794 8 6 8ZM6 1.33333C7.47067 1.33333 8.66667 2.52933 8.66667 4C8.66667 5.47067 7.47067 6.66667 6 6.66667C4.52933 6.66667 3.33333 5.47067 3.33333 4C3.33333 2.52933 4.52933 1.33333 6 1.33333ZM15.4147 7.91933C14.6587 7.16333 13.3413 7.16333 12.586 7.91933L7.33333 13.1713V16H10.162L15.414 10.748C15.792 10.37 16 9.868 16 9.33333C16 8.79867 15.792 8.29667 15.4147 7.91933ZM14.4713 9.80467L9.61 14.6667H8.66667V13.7233L13.5287 8.862C13.78 8.61 14.2193 8.61 14.4713 8.862C14.5973 8.98733 14.6667 9.15467 14.6667 9.33333C14.6667 9.512 14.5973 9.67867 14.4713 9.80467ZM7.95267 10.6667H3.33333C2.23067 10.6667 1.33333 11.564 1.33333 12.6667V16H0V12.6667C0 10.8287 1.49533 9.33333 3.33333 9.33333H8.66667C8.85933 9.33333 9.04533 9.35867 9.22933 9.39L7.95267 10.6667Z" fill="black"/>
</g>
<defs>
<clipPath id="clip0_799_109">
<rect width="16" height="16" fill="white"/>
</clipPath>
</defs>
</svg>
