<svg width="16" height="16" viewBox="0 0 16 16" fill="none" xmlns="http://www.w3.org/2000/svg">
<g opacity="0.6" clip-path="url(#clip0_681_196)">
<path d="M9.41441 8.00016L15.7075 1.70776C16.0981 1.31712 16.0981 0.683772 15.7075 0.293163C15.3169 -0.097477 14.6835 -0.097477 14.2929 0.293163L8.00047 6.58622L1.70807 0.293163C1.31743 -0.097477 0.684077 -0.097477 0.293468 0.293163C-0.0971405 0.683804 -0.0971718 1.31715 0.293468 1.70776L6.58652 8.00016L0.293468 14.2926C-0.0971718 14.6832 -0.0971718 15.3166 0.293468 15.7072C0.684109 16.0978 1.31746 16.0978 1.70807 15.7072L8.00047 9.4141L14.2929 15.7072C14.6835 16.0978 15.3169 16.0978 15.7075 15.7072C16.0981 15.3165 16.0981 14.6832 15.7075 14.2926L9.41441 8.00016Z" fill="black"/>
</g>
<defs>
<clipPath id="clip0_681_196">
<rect width="16" height="16" fill="white"/>
</clipPath>
</defs>
</svg>
