<svg width="48" height="48" viewBox="0 0 48 48" fill="none" xmlns="http://www.w3.org/2000/svg">
<path d="M5.16816 30.3917C4.92206 31.7513 4.79884 33.1303 4.8 34.512H9.66528C9.6645 33.1206 9.83375 31.7344 10.1693 30.384L5.16816 30.3917Z" fill="#FFFEFD"/>
<path d="M11.3078 18.7378C11.0058 19.0296 10.711 19.3324 10.4237 19.646C8.64778 21.5972 7.25244 23.8634 6.3096 26.3276C5.91977 27.3379 5.60374 28.3752 5.364 29.4312L10.439 29.424C11.243 26.8632 12.636 24.5996 14.4403 22.8279L11.3078 18.7378Z" fill="#FFFEFD"/>
<path d="M42.6336 29.4212C42.3942 28.3686 42.079 27.3347 41.6904 26.3276C40.7476 23.8634 39.3522 21.5972 37.5763 19.646C37.2883 19.3317 36.9936 19.029 36.6922 18.7378L33.5597 22.826C35.3664 24.602 36.7608 26.8671 37.5643 29.4322L42.6336 29.4212Z" fill="#FFFEFD"/>
<path d="M35.9832 18.0845C34.6289 16.8924 33.1104 15.9012 31.4741 15.1411C29.1329 14.0522 26.582 13.488 24 13.488C21.418 13.488 18.8671 14.0522 16.5259 15.1411C14.8896 15.9012 13.3711 16.8924 12.0168 18.0845L15.1493 22.1727C17.5882 20.0707 20.6626 18.816 24 18.816C27.3374 18.816 30.4118 20.0717 32.8507 22.1736L35.9832 18.0845Z" fill="#FFFEFD"/>
<path d="M37.8326 30.3917C38.1671 31.7395 38.3357 33.1232 38.3347 34.512H43.2C43.2013 33.1267 43.0774 31.7441 42.8299 30.3811L37.8326 30.3917Z" fill="#FFFEFD"/>
<path d="M23.5224 33.6643C24.7607 33.6643 25.7645 32.6605 25.7645 31.4223C25.7645 30.184 24.7607 29.1802 23.5224 29.1802C22.2841 29.1802 21.2803 30.184 21.2803 31.4223C21.2803 32.6605 22.2841 33.6643 23.5224 33.6643Z" fill="#FFFEFD"/>
<path d="M30.8933 23.5488C30.8711 23.3887 30.805 23.238 30.7024 23.1132C30.5998 22.9884 30.4646 22.8945 30.3119 22.8418C30.1592 22.7891 29.9948 22.7797 29.8371 22.8147C29.6794 22.8497 29.5344 22.9277 29.4182 23.04L24.0288 28.2609C24.6005 28.3523 25.1368 28.597 25.5805 28.9689C26.0242 29.3408 26.3589 29.826 26.5488 30.3729L30.7512 24.1608C30.873 23.9815 30.9237 23.7633 30.8933 23.5488Z" fill="#FFFEFD"/>
</svg>
