<svg width="48" height="48" viewBox="0 0 48 48" fill="none" xmlns="http://www.w3.org/2000/svg">
<path d="M12.7529 31.85V36.5549C12.7529 41.9569 16.935 46.5747 22.3369 46.7925C28.0003 47.0103 32.7052 42.4361 32.7052 36.8163V36.7292C32.7052 33.6797 35.1883 31.1966 38.2378 31.1966H41.9124C43.1322 31.1966 44.1342 30.1946 44.1342 28.9748C44.1342 27.755 43.1322 26.753 41.9124 26.753H38.1943C32.7488 26.753 28.3052 31.153 28.3052 36.5985C28.3052 39.4302 26.3013 41.9569 23.4696 42.3054C20.1152 42.741 17.1964 40.0836 17.1964 36.8163V31.85C22.2498 30.8045 26.0835 26.3609 26.0835 20.959V13.5684C26.0835 12.7842 25.43 12.1308 24.6458 12.1308H21.8577V3.38964C21.8577 2.30054 21.0736 1.34214 19.9845 1.21144C18.7647 1.08075 17.7192 2.08272 17.7192 3.30252V12.1308H12.2301V3.38964C12.2301 2.30054 11.4459 1.34214 10.3568 1.21144C9.13705 1.08075 8.09151 2.08272 8.09151 3.30252V12.1308H5.30341C4.51926 12.1308 3.8658 12.7842 3.8658 13.5684V21.0026C3.8658 26.3609 7.69943 30.848 12.7529 31.85Z" fill="#FFFEFD"/>
</svg>
