<svg width="24" height="24" viewBox="0 0 24 24" fill="none" xmlns="http://www.w3.org/2000/svg">
<path d="M3.9999 0H6.99984C9.20892 0 10.9997 1.79082 10.9997 3.9999V6.99984C10.9997 9.20892 9.20892 10.9997 6.99984 10.9997H3.9999C1.79082 10.9998 0 9.20896 0 6.99984V3.9999C0 1.79082 1.79082 0 3.9999 0Z" fill="black"/>
<path d="M3.9999 13H6.99984C9.20892 13 10.9997 14.7908 10.9997 16.9999V19.9998C10.9997 22.2089 9.20892 23.9997 6.99984 23.9997H3.9999C1.79082 23.9998 0 22.209 0 19.9999V16.9999C0 14.7908 1.79082 13 3.9999 13Z" fill="black"/>
<path d="M16.9999 13H19.9998C22.2089 13 23.9997 14.7908 23.9997 16.9999V19.9998C23.9997 22.209 22.2089 23.9998 19.9998 23.9998H16.9999C14.7908 23.9998 13 22.209 13 19.9999V16.9999C13 14.7908 14.7908 13 16.9999 13Z" fill="black"/>
<path d="M14 6.99983H16.9999V9.99976C16.9999 10.552 17.4476 10.9997 17.9999 10.9997C18.5521 10.9997 18.9998 10.552 18.9998 9.99976V6.99983H21.9998C22.552 6.99983 22.9997 6.55213 22.9997 5.99986C22.9997 5.44759 22.552 4.9999 21.9998 4.9999H18.9998V1.99996C18.9998 1.44769 18.5521 1 17.9999 1C17.4476 1 16.9999 1.44769 16.9999 1.99996V4.9999H14C13.4477 4.9999 13 5.44759 13 5.99986C13 6.55213 13.4477 6.99983 14 6.99983Z" fill="black"/>
</svg>
