<svg width="48" height="48" viewBox="0 0 48 48" fill="none" xmlns="http://www.w3.org/2000/svg">
<path d="M3.75147 9.00195C2.51794 9.00195 1.49707 10.0155 1.49707 11.249V32.249C1.49707 33.4825 2.51794 34.4961 3.75147 34.4961H20.9971V26.999H2.99854V11.249C2.99854 10.8206 3.32298 10.502 3.75147 10.502H32.2529C32.6814 10.502 33 10.8206 33 11.249V11.9961H34.5V11.249C34.5 10.0155 33.4865 9.00195 32.2529 9.00195H3.75147ZM24.75 13.4961C23.5165 13.4961 22.4971 14.517 22.4971 15.7505V36.7505C22.4971 37.984 23.5165 38.9976 24.75 38.9976H35.2749C34.7961 38.3682 34.5 37.5948 34.5 36.7505V32.999H23.9971V16.499H39.0015V20.999H40.5015V15.7505C40.5015 14.517 39.4821 13.4961 38.2485 13.4961H24.75ZM5.23975 14.9859C5.14076 14.987 5.04298 15.0077 4.95204 15.0469C4.8611 15.086 4.7788 15.1427 4.7099 15.2138C4.641 15.2849 4.58685 15.3689 4.55057 15.461C4.51429 15.5532 4.49661 15.6515 4.49854 15.7505V17.2505C4.4963 17.3504 4.51404 17.4498 4.55072 17.5427C4.5874 17.6357 4.64229 17.7203 4.71215 17.7918C4.78202 17.8632 4.86546 17.9201 4.95757 17.9588C5.04968 17.9976 5.14861 18.0175 5.24854 18.0175C5.34847 18.0175 5.4474 17.9976 5.53951 17.9588C5.63162 17.9201 5.71506 17.8632 5.78493 17.7918C5.85479 17.7203 5.90968 17.6357 5.94636 17.5427C5.98304 17.4498 6.00078 17.3504 5.99854 17.2505V15.7505C6.0005 15.65 5.98225 15.5503 5.94489 15.457C5.90752 15.3637 5.8518 15.2789 5.78103 15.2076C5.71025 15.1363 5.62587 15.0798 5.53289 15.0418C5.43991 15.0037 5.34022 14.9847 5.23975 14.9859ZM5.23975 19.4873C5.14076 19.4885 5.04298 19.5092 4.95204 19.5483C4.8611 19.5874 4.7788 19.6442 4.7099 19.7153C4.641 19.7863 4.58685 19.8704 4.55057 19.9625C4.51429 20.0546 4.49661 20.153 4.49854 20.252V24.7461C4.4963 24.846 4.51404 24.9454 4.55072 25.0384C4.5874 25.1313 4.64229 25.216 4.71215 25.2874C4.78202 25.3589 4.86546 25.4157 4.95757 25.4545C5.04968 25.4932 5.14861 25.5132 5.24854 25.5132C5.34847 25.5132 5.4474 25.4932 5.53951 25.4545C5.63162 25.4157 5.71506 25.3589 5.78493 25.2874C5.85479 25.216 5.90968 25.1313 5.94636 25.0384C5.98304 24.9454 6.00078 24.846 5.99854 24.7461V20.252C6.0005 20.1515 5.98225 20.0517 5.94489 19.9584C5.90752 19.8652 5.8518 19.7804 5.78103 19.709C5.71025 19.6377 5.62587 19.5813 5.53289 19.5432C5.43991 19.5051 5.34022 19.4861 5.23975 19.4873ZM26.2397 19.4873C26.1408 19.4885 26.043 19.5092 25.952 19.5483C25.8611 19.5874 25.7788 19.6442 25.7099 19.7153C25.641 19.7863 25.5868 19.8704 25.5506 19.9625C25.5143 20.0546 25.4966 20.153 25.4985 20.252V21.752C25.4964 21.8518 25.5142 21.9511 25.5509 22.044C25.5876 22.1369 25.6425 22.2215 25.7124 22.2929C25.7822 22.3643 25.8656 22.421 25.9577 22.4597C26.0498 22.4984 26.1487 22.5184 26.2485 22.5184C26.3484 22.5184 26.4473 22.4984 26.5394 22.4597C26.6314 22.421 26.7148 22.3643 26.7847 22.2929C26.8546 22.2215 26.9095 22.1369 26.9462 22.044C26.9829 21.9511 27.0007 21.8518 26.9985 21.752V20.252C27.0005 20.1515 26.9823 20.0517 26.9449 19.9584C26.9075 19.8652 26.8518 19.7804 26.781 19.709C26.7102 19.6377 26.6259 19.5813 26.5329 19.5432C26.4399 19.5051 26.3402 19.4861 26.2397 19.4873ZM38.2485 22.499C37.015 22.499 36 23.5126 36 24.7461V36.7505C36 37.984 37.015 38.9976 38.2485 38.9976H44.25C45.4835 38.9976 46.4971 37.984 46.4971 36.7505V24.7461C46.4971 23.5126 45.4835 22.499 44.25 22.499H38.2485ZM26.2397 23.9888C26.0411 23.9911 25.8515 24.0722 25.7125 24.2142C25.5736 24.3562 25.4966 24.5475 25.4985 24.7461V29.2476C25.4964 29.3475 25.5142 29.4468 25.5509 29.5396C25.5876 29.6325 25.6425 29.7171 25.7124 29.7885C25.7822 29.8599 25.8656 29.9166 25.9577 29.9553C26.0498 29.994 26.1487 30.014 26.2485 30.014C26.3484 30.014 26.4473 29.994 26.5394 29.9553C26.6314 29.9166 26.7148 29.8599 26.7847 29.7885C26.8546 29.7171 26.9095 29.6325 26.9462 29.5396C26.9829 29.4468 27.0007 29.3475 26.9985 29.2476V24.7461C26.9995 24.6463 26.9805 24.5472 26.9427 24.4548C26.9049 24.3624 26.849 24.2784 26.7784 24.2079C26.7077 24.1374 26.6236 24.0817 26.5312 24.0441C26.4387 24.0064 26.3396 23.9876 26.2397 23.9888ZM37.5015 25.5005H44.9971V35.9961H37.5015V25.5005ZM17.2134 30.0005H18.75C19.7502 30.0005 19.7502 31.502 18.75 31.502H17.2485C16.2483 31.5499 16.1772 30.0485 17.2134 30.0005ZM30.7529 34.4961H32.2529C32.449 34.5004 32.6356 34.5813 32.7727 34.7215C32.9099 34.8617 32.9867 35.05 32.9867 35.2461C32.9867 35.4422 32.9099 35.6305 32.7727 35.7707C32.6356 35.9109 32.449 35.9918 32.2529 35.9961H30.7529C30.5569 35.9918 30.3703 35.9109 30.2331 35.7707C30.096 35.6305 30.0192 35.4422 30.0192 35.2461C30.0192 35.05 30.096 34.8617 30.2331 34.7215C30.3703 34.5813 30.5569 34.5004 30.7529 34.4961ZM13.7402 35.9961C13.4764 36.4648 13.0809 36.974 12.4717 37.4975H11.2471C11.1472 37.4954 11.0479 37.5132 10.955 37.5499C10.8621 37.5866 10.7775 37.6415 10.7061 37.7114C10.6347 37.7812 10.5779 37.8646 10.5392 37.9567C10.5005 38.0488 10.4805 38.1477 10.4805 38.2476C10.4805 38.3475 10.5005 38.4464 10.5392 38.5385C10.5779 38.6306 10.6347 38.714 10.7061 38.7838C10.7775 38.8537 10.8621 38.9085 10.955 38.9452C11.0479 38.9819 11.1472 38.9997 11.2471 38.9976H21.7734C21.2943 38.3686 20.9971 37.5958 20.9971 36.7505V35.9961H13.7402Z" fill="#FFFEFD"/>
</svg>
