<svg width="40" height="40" viewBox="0 0 40 40" fill="none" xmlns="http://www.w3.org/2000/svg">
<g clip-path="url(#clip0_504_124)">
<path d="M26.0975 20.5928C27.9936 18.6968 27.9936 15.6116 26.0975 13.7156C24.2014 11.8194 21.1162 11.8194 19.2203 13.7156C18.3017 14.6341 17.7959 15.8552 17.7959 17.1542C17.7959 18.4532 18.3018 19.6743 19.2202 20.5928C20.1387 21.5114 21.3599 22.0172 22.6589 22.0172C23.9579 22.0172 25.179 21.5114 26.0975 20.5928ZM18.9677 17.1542C18.9677 16.1683 19.3516 15.2413 20.0488 14.5442C20.7684 13.8246 21.7137 13.4648 22.6588 13.4648C23.604 13.4648 24.5493 13.8246 25.2688 14.5442C26.708 15.9834 26.708 18.3251 25.2688 19.7642C24.5716 20.4614 23.6447 20.8453 22.6588 20.8453C21.6729 20.8453 20.746 20.4613 20.0488 19.7642C19.3516 19.0671 18.9677 18.1401 18.9677 17.1542Z" fill="#FEFAF7"/>
<path d="M17.9991 28.4206C18.1545 28.4206 18.3035 28.3589 18.4135 28.249L20.9505 25.712C21.1793 25.4832 21.1793 25.1122 20.9505 24.8834C20.7216 24.6546 20.3507 24.6546 20.1218 24.8834L17.9992 27.0061L15.8174 24.8242L17.753 22.8886C17.9819 22.6598 17.9819 22.2888 17.753 22.06C17.5241 21.8312 17.1532 21.8312 16.9244 22.06L14.9888 23.9956L12.8069 21.8138L14.9296 19.6911C15.1585 19.4623 15.1585 19.0913 14.9296 18.8625C14.7007 18.6337 14.3298 18.6337 14.101 18.8625L11.564 21.3995C11.3351 21.6284 11.3351 21.9994 11.564 22.2281L14.5737 25.2379C14.5739 25.2381 14.5742 25.2384 14.5745 25.2386C14.5748 25.2389 14.5749 25.2391 14.5753 25.2393L17.585 28.2491C17.6948 28.3589 17.8437 28.4206 17.9991 28.4206Z" fill="#FEFAF7"/>
<path d="M10.8788 32.6524C10.5558 32.6355 10.2807 32.8856 10.2648 33.2088C10.2489 33.532 10.498 33.8069 10.8212 33.8228C12.1005 33.8857 13.3818 33.3358 14.2825 32.4351C15.3777 31.34 15.6178 29.6739 14.8411 28.5596C14.4852 28.049 13.9643 27.7188 13.3346 27.6046C12.3153 27.42 11.3657 27.8476 10.4865 28.311C9.70002 28.7259 8.95705 29.1177 8.26729 28.8885C7.85058 28.75 7.65746 28.4555 7.56894 28.2328C7.42488 27.8704 7.45699 27.4339 7.65511 27.0653C8.38737 25.7019 10.0794 25.5265 10.097 25.5249C10.4182 25.4958 10.6557 25.2124 10.6279 24.8908C10.6001 24.5684 10.3154 24.3301 9.99361 24.3576C9.89876 24.3658 7.65933 24.581 6.62278 26.5109C6.25778 27.1906 6.20575 27.976 6.4802 28.6659C6.73543 29.3076 7.23887 29.7817 7.89785 30.0006C9.06158 30.3876 10.1549 29.8109 11.0334 29.3476C11.8314 28.927 13.1963 28.2489 13.8799 29.2297C14.2683 29.787 14.2511 30.8095 13.454 31.6065C12.7542 32.3063 11.7929 32.6972 10.8788 32.6524Z" fill="#FEFAF7"/>
<path d="M38.8616 1.32437C37.9186 0.381331 36.5398 0.00586637 34.9803 0.266958C33.493 0.51594 32.0049 1.32203 30.7901 2.53686C30.2112 3.11576 29.7267 3.75271 29.346 4.43489L24.6495 3.95317C24.0979 3.89684 23.556 4.08911 23.1635 4.48153L21.3603 6.28471C21.1315 6.51354 21.1315 6.88447 21.3603 7.1133C21.5891 7.34212 21.9601 7.34212 22.189 7.1133L23.9921 5.31019C24.1341 5.16816 24.3309 5.09832 24.5299 5.11894L29.615 5.6405C29.6178 5.64081 29.6206 5.64112 29.6234 5.64136L33.2104 6.00925C33.5222 6.0412 33.7718 6.29081 33.8038 6.6026L34.1802 10.2724C33.8768 10.379 33.5707 10.4589 33.2656 10.51C32.9513 10.5626 32.6484 10.5826 32.3605 10.5709C32.5315 9.80843 32.3209 8.97687 31.7287 8.38461C30.8095 7.4654 29.3139 7.46556 28.3948 8.38461C27.4757 9.30374 27.4757 10.7993 28.3949 11.7184C28.8544 12.1779 29.4581 12.4078 30.0618 12.4078C30.6946 12.4078 31.3167 12.1454 31.7576 11.689C32.0015 11.7274 32.2541 11.7468 32.514 11.7468C32.8197 11.7468 33.1356 11.72 33.4591 11.6658C33.7408 11.6186 34.0226 11.5515 34.3026 11.4654L34.6942 15.2831C34.7147 15.4828 34.645 15.6788 34.503 15.8209L25.4472 24.8763C25.4394 24.8841 25.4319 24.8921 25.4246 24.9003C22.0631 25.3352 19.3935 28.0079 18.9635 31.371C18.938 31.3892 18.9137 31.4099 18.8908 31.4327L11.8763 38.4474C11.7508 38.5729 11.5839 38.6421 11.4063 38.6421C11.2289 38.6421 11.0619 38.5729 10.9364 38.4474L1.36567 28.8765C1.10653 28.6174 1.10653 28.1957 1.36567 27.9366L20.2523 9.05008C20.4811 8.82125 20.4811 8.45024 20.2523 8.22149C20.0234 7.99266 19.6524 7.99266 19.4236 8.22149L0.537006 27.1079C-0.179002 27.824 -0.179002 28.9891 0.537006 29.7051L10.1078 39.2759C10.4546 39.6227 10.9159 39.8138 11.4064 39.8138C11.8969 39.8138 12.3581 39.6227 12.705 39.2759L18.9371 33.0438C19.2995 36.8371 22.504 39.8138 26.3907 39.8138C27.8417 39.8138 29.2494 39.398 30.4616 38.6114C30.733 38.4353 30.8102 38.0725 30.6341 37.801C30.458 37.5295 30.0953 37.4523 29.8236 37.6284C28.8018 38.2914 27.6148 38.6419 26.3907 38.6419C22.9081 38.6419 20.0748 35.8086 20.0748 32.326C20.0748 28.8434 22.9081 26.0101 26.3907 26.0101C29.8733 26.0101 32.7066 28.8434 32.7066 32.326C32.7066 33.6012 32.3286 34.8297 31.6135 35.8787C31.4312 36.1461 31.5002 36.5106 31.7676 36.6929C32.035 36.8752 32.3995 36.8061 32.5818 36.5388C33.4301 35.2944 33.8786 33.8376 33.8786 32.326C33.8786 28.4393 30.9019 25.2348 27.1087 24.8723L35.3317 16.6494C35.7239 16.257 35.9165 15.7153 35.8599 15.1635L35.4339 11.009C36.2249 10.6125 36.9788 10.0665 37.6493 9.39593C38.8641 8.18118 39.6701 6.69307 39.9192 5.20582C40.1801 3.64583 39.8047 2.26733 38.8616 1.32437ZM31.2152 10.3237C30.9092 10.1924 30.6369 10.0105 30.4062 9.77983C30.1773 9.55101 29.8064 9.55101 29.5776 9.77983C29.3488 10.0087 29.3488 10.3797 29.5776 10.6084C29.8099 10.8408 30.0687 11.0386 30.3502 11.2011C29.9594 11.2984 29.5284 11.1947 29.2234 10.8897C28.7611 10.4275 28.7611 9.67546 29.2233 9.2132C29.4545 8.98211 29.758 8.86656 30.0616 8.86656C30.3652 8.86656 30.6687 8.98211 30.8998 9.2132C31.2006 9.5139 31.3057 9.93718 31.2152 10.3237ZM36.8204 8.56727C36.352 9.03562 35.8397 9.43273 35.3042 9.74718L34.9695 6.48299C34.881 5.62144 34.1915 4.93191 33.33 4.84348L30.6357 4.56715C30.9148 4.14278 31.2436 3.7406 31.6187 3.36552C33.7213 1.26289 36.5988 0.718984 38.033 2.15303C39.4671 3.58708 38.9231 6.46455 36.8204 8.56727Z" fill="#FEFAF7"/>
<path d="M29.288 29.3083L25.5422 34.0936L23.4515 31.9464C23.2257 31.7144 22.8547 31.7095 22.623 31.9353C22.3911 32.1611 22.3862 32.532 22.6119 32.7638L25.1705 35.3916C25.2811 35.5051 25.4326 35.5687 25.5903 35.5687C25.6008 35.5687 25.6114 35.5685 25.6219 35.5679C25.7908 35.5587 25.9474 35.4771 26.0517 35.344L30.2108 30.0306C30.4103 29.7758 30.3655 29.4075 30.1106 29.208C29.8559 29.0087 29.4876 29.0534 29.288 29.3083Z" fill="#FEFAF7"/>
</g>
<defs>
<clipPath id="clip0_504_124">
<rect width="40" height="40" fill="white"/>
</clipPath>
</defs>
</svg>
