<svg width="48" height="48" viewBox="0 0 48 48" fill="none" xmlns="http://www.w3.org/2000/svg">
<g clip-path="url(#clip0_328_980)">
<path d="M41.954 6.04612C38.0551 2.14725 32.8713 0 27.3574 0C21.8435 0 16.6597 2.14725 12.7609 6.04612C12.4761 6.33094 12.1965 6.62709 11.93 6.92634C11.6712 7.21687 11.6969 7.66228 11.9875 7.92103C12.2782 8.17987 12.7236 8.154 12.9822 7.86347C13.2308 7.58437 13.4916 7.30819 13.7573 7.04241C17.39 3.40969 22.22 1.40897 27.3575 1.40897C32.495 1.40897 37.3249 3.40959 40.9576 7.04241C48.4568 14.5416 48.4568 26.7436 40.9576 34.2428C37.3249 37.8755 32.4949 39.8762 27.3575 39.8762C22.22 39.8762 17.39 37.8756 13.7573 34.2428C10.5987 31.0842 8.62847 26.9001 8.20951 22.4611C7.79588 18.0794 8.9011 13.6597 11.3214 10.0159C11.5367 9.69178 11.4485 9.25444 11.1244 9.03919C10.8004 8.82394 10.363 8.91216 10.1477 9.23625C7.54941 13.1479 6.36282 17.8916 6.80672 22.5936C7.15004 26.2311 8.46469 29.7083 10.5753 32.6587L8.50641 34.7275C8.23125 34.4528 7.78538 34.4528 7.51041 34.7278L1.19157 41.0467C-0.397026 42.6352 -0.397026 45.22 1.19157 46.8085C1.98572 47.6029 3.02907 48 4.07241 48C5.11575 48 6.1591 47.6029 6.95335 46.8086L8.73919 45.0228C9.01435 44.7476 9.01435 44.3016 8.73919 44.0264C8.46404 43.7512 8.01797 43.7512 7.74282 44.0264L5.95697 45.8122C5.45354 46.3157 4.78425 46.5929 4.07232 46.5929C3.36038 46.5929 2.6911 46.3157 2.18766 45.8122C1.68422 45.3088 1.407 44.6395 1.407 43.9276C1.407 43.2157 1.68422 42.5464 2.18766 42.0429L8.00832 36.2223L11.7775 39.9915L9.73538 42.0337C9.46022 42.3088 9.46022 42.7549 9.73538 43.03C10.0105 43.3052 10.4566 43.3052 10.7318 43.03L13.272 40.4898C13.5471 40.2147 13.5472 39.7688 13.2723 39.4938L15.3371 37.4289C18.8188 39.9333 22.9838 41.2853 27.3572 41.2853C32.8711 41.2853 38.0548 39.1381 41.9538 35.2392C45.8528 31.3403 48 26.1564 48 20.6426C48 15.1288 45.8528 9.945 41.954 6.04612ZM12.2761 38.4973L9.5026 35.7238L11.4412 33.7853C11.8568 34.2889 12.2963 34.7747 12.7608 35.2391C13.2268 35.7052 13.7117 36.1453 14.2128 36.5606L12.2761 38.4973Z" fill="#FFFEFD"/>
<path d="M34.5646 35.662C36.2572 34.8497 37.7946 33.7588 39.1341 32.4194C45.6277 25.9257 45.6277 15.3598 39.1341 8.86608C32.6403 2.37239 22.0745 2.37249 15.5808 8.86608C9.0872 15.3598 9.0872 25.9257 15.5808 32.4194C18.7427 35.5813 23.0116 37.2954 27.3771 37.2953C28.8561 37.2953 30.3466 37.0985 31.8083 36.6945C32.1833 36.591 32.4033 36.2029 32.2997 35.8278C32.1959 35.4527 31.8079 35.2328 31.433 35.3364C26.1444 36.7977 20.4522 35.2981 16.5772 31.423C10.6329 25.4787 10.6329 15.8067 16.5772 9.86245C22.5214 3.91833 32.1932 3.91814 38.1377 9.86245C44.082 15.8068 44.082 25.4788 38.1378 31.423C36.911 32.6496 35.5038 33.6484 33.955 34.3917C33.6042 34.56 33.4564 34.9808 33.6247 35.3316C33.793 35.6825 34.2139 35.8301 34.5646 35.662Z" fill="#FFFEFD"/>
<path d="M28.2061 17.4323C28.5953 17.4323 28.9106 17.1168 28.9106 16.7277C28.9106 16.3387 28.5953 16.0232 28.2061 16.0232H24.907C24.5178 16.0232 24.2024 16.3387 24.2024 16.7277V24.5575C24.2024 24.9466 24.5178 25.2621 24.907 25.2621H28.2061C28.5953 25.2621 28.9106 24.9466 28.9106 24.5575C28.9106 24.1685 28.5953 23.853 28.2061 23.853H25.6115V21.3472H27.9628C28.352 21.3472 28.6674 21.0317 28.6674 20.6426C28.6674 20.2536 28.352 19.9381 27.9628 19.9381H25.6115V17.4323H28.2061Z" fill="#FFFEFD"/>
<path d="M19.8548 23.8891C18.9908 23.8891 18.1567 23.5378 17.6232 22.9492C17.3619 22.6609 16.9164 22.639 16.6281 22.9004C16.3397 23.1616 16.3178 23.6071 16.5792 23.8955C17.3753 24.7738 18.5998 25.2982 19.8549 25.2982C21.3581 25.2982 22.6678 24.3123 22.9013 23.0049C23.1705 21.4966 21.9846 20.4865 20.7849 20.044C19.768 19.6689 18.8248 19.2594 18.5868 19.1548C18.3343 18.9698 18.2118 18.6742 18.2576 18.3545C18.3155 17.9521 18.6247 17.6291 19.0848 17.4905C20.3535 17.1087 21.499 18.0279 21.5208 18.0456C21.8185 18.2936 22.2611 18.2545 22.5109 17.9575C22.7612 17.6596 22.7228 17.2153 22.4249 16.9648C22.3552 16.9062 20.6921 15.535 18.6785 16.1414C17.6943 16.4378 16.9986 17.2091 16.8629 18.1544C16.7366 19.0344 17.1177 19.8808 17.8575 20.3631C17.8886 20.3833 17.9213 20.4012 17.9553 20.4164C18.0007 20.4366 19.0805 20.9173 20.2973 21.3661C21.171 21.6884 21.6144 22.1954 21.5141 22.7574C21.416 23.306 20.8012 23.8891 19.8548 23.8891Z" fill="#FFFEFD"/>
<path d="M38.9152 20.6426C38.9152 18.0755 36.8268 15.9871 34.2596 15.9871C31.6926 15.9871 29.6042 18.0755 29.6042 20.6426C29.6042 23.2097 31.6926 25.298 34.2596 25.298C36.8268 25.2981 38.9152 23.2097 38.9152 20.6426ZM31.0133 20.6426C31.0133 18.8525 32.4697 17.3961 34.2597 17.3961C36.0499 17.3961 37.5063 18.8524 37.5063 20.6426C37.5063 22.4327 36.0499 23.8891 34.2597 23.8891C32.4697 23.8891 31.0133 22.4327 31.0133 20.6426Z" fill="#FFFEFD"/>
</g>
<defs>
<clipPath id="clip0_328_980">
<rect width="48" height="48" fill="white"/>
</clipPath>
</defs>
</svg>
