<svg width="1270" height="240" viewBox="0 0 1270 240" fill="none" xmlns="http://www.w3.org/2000/svg">
<path d="M843.795 0C855.795 0 865.962 1.83333 874.295 5.5C882.628 8.99999 889.378 13.8333 894.545 20C895.555 21.2059 896.508 22.4409 897.403 23.7041L900.295 2.5H911.545V55.75H900.795C898.462 47.25 895.128 39.75 890.795 33.25C886.628 26.75 881.295 21.6667 874.795 18C868.462 14.1667 860.878 12.25 852.045 12.25C844.712 12.25 838.212 14 832.545 17.5C826.878 20.8333 822.128 25.8333 818.295 32.5C814.462 39.1667 811.545 47.4167 809.545 57.25C807.712 67.0833 806.795 78.4167 806.795 91.25C806.795 105.083 807.795 117 809.795 127C811.795 137 814.795 145.25 818.795 151.75C822.962 158.083 827.878 162.833 833.545 166C839.378 169 846.045 170.5 853.545 170.5C862.212 170.5 869.962 168.333 876.795 164C883.795 159.5 889.712 153.333 894.545 145.5C899.545 137.5 903.128 128.167 905.295 117.5L915.795 121.75C913.295 133.75 909.045 144.333 903.045 153.5C897.045 162.667 889.295 169.833 879.795 175C870.295 180 858.962 182.5 845.795 182.5C844.366 182.5 842.949 182.472 841.544 182.42L834.77 195.653C840.572 195.616 845.747 196.147 850.295 197.25C855.962 198.75 860.295 201.083 863.295 204.25C866.462 207.417 868.045 211.5 868.045 216.5C868.045 220.333 867.212 223.667 865.545 226.5C863.878 229.333 861.545 231.667 858.545 233.5C855.545 235.5 851.962 236.917 847.795 237.75C843.795 238.75 839.462 239.25 834.795 239.25C827.462 239.25 821.295 238.25 816.295 236.25C811.295 234.417 807.128 231.833 803.795 228.5L809.545 220.75C811.545 222.75 813.462 224.333 815.295 225.5C817.295 226.833 819.295 227.75 821.295 228.25C823.462 228.75 825.628 229 827.795 229C832.462 229 835.962 227.75 838.295 225.25C840.628 222.917 841.795 219.833 841.795 216C841.795 212.167 840.462 209.167 837.795 207C835.128 205 830.712 204 824.545 204H820.295L829.173 181.233C822.401 180.165 815.942 178.422 809.795 176C798.962 171.667 789.545 165.5 781.545 157.5C773.545 149.333 767.295 139.667 762.795 128.5C758.462 117.333 756.295 104.917 756.295 91.25C756.295 77.5833 758.545 65.25 763.045 54.25C767.545 43.0833 773.795 33.5 781.795 25.5C789.795 17.3333 799.045 11.0833 809.545 6.75C820.212 2.25 831.628 0 843.795 0Z" fill="url(#paint0_linear_379_74)" fill-opacity="0.05"/>
<path d="M62 0C72.3333 0 81.0833 1.41667 88.25 4.25C95.5833 6.91666 101.667 10.8333 106.5 16C107.812 17.3123 109.049 18.6944 110.212 20.1445L112.5 2.5H123.75V48.5H113.25C110.917 40.8333 107.5 34.25 103 28.75C98.5 23.0833 93.1667 18.8333 87 16C81 13 74.3333 11.5 67 11.5C60.5 11.5 55 12.4167 50.5 14.25C46.1667 16.0833 42.8333 18.8333 40.5 22.5C38.3333 26 37.25 30.25 37.25 35.25C37.25 40.25 38.3333 44.4167 40.5 47.75C42.8333 51.0833 46.0833 53.9167 50.25 56.25C54.4167 58.5833 59.25 60.6667 64.75 62.5C70.4167 64.1667 76.5 65.8333 83 67.5C90.1667 69.5 97 71.9167 103.5 74.75C110.167 77.4167 116.083 80.8333 121.25 85C126.583 89.1667 130.75 94.4167 133.75 100.75C136.75 107.083 138.25 114.75 138.25 123.75C138.25 135.583 135.5 145.917 130 154.75C124.667 163.417 117 170.25 107 175.25C97.1667 180.083 85.4167 182.5 71.75 182.5C61.75 182.5 52.5 181.083 44 178.25C35.5 175.417 28.0833 171.083 21.75 165.25C19.0266 162.67 16.5506 159.796 14.3203 156.631L11.5 180H0V126H11.5C14.8333 136.333 19.25 144.833 24.75 151.5C30.25 158 36.6667 162.917 44 166.25C51.3333 169.417 59.3333 171 68 171C75 171 81 170.083 86 168.25C91.1667 166.25 95.1667 163.25 98 159.25C100.833 155.083 102.25 149.833 102.25 143.5C102.25 138.667 101.083 134.583 98.75 131.25C96.4167 127.917 93 125 88.5 122.5C84.1667 120 78.9167 117.75 72.75 115.75C66.75 113.583 59.9167 111.333 52.25 109C45.9167 107 39.6667 104.583 33.5 101.75C27.5 98.9167 22.0833 95.3333 17.25 91C12.4167 86.6667 8.58333 81.4167 5.75 75.25C3.08333 68.9167 1.75 61.25 1.75 52.25C1.75 41.25 4.41667 31.9167 9.75 24.25C15.25 16.4167 22.5833 10.4167 31.75 6.25C40.9167 2.08334 51 0 62 0Z" fill="url(#paint1_linear_379_74)" fill-opacity="0.05"/>
<path fill-rule="evenodd" clip-rule="evenodd" d="M1021.63 0C1034.8 0 1046.96 2.16666 1058.13 6.5C1069.3 10.8333 1078.96 17.0833 1087.13 25.25C1095.46 33.25 1101.88 42.8333 1106.38 54C1111.05 65.1667 1113.38 77.5833 1113.38 91.25C1113.38 104.917 1111.05 117.417 1106.38 128.75C1101.88 139.917 1095.46 149.5 1087.13 157.5C1078.96 165.5 1069.3 171.667 1058.13 176C1046.96 180.333 1034.71 182.5 1021.38 182.5C1008.21 182.5 996.046 180.333 984.879 176C973.712 171.667 963.962 165.5 955.629 157.5C947.462 149.5 941.129 139.917 936.629 128.75C932.129 117.417 929.879 104.917 929.879 91.25C929.879 77.5833 932.129 65.1667 936.629 54C941.129 42.8333 947.462 33.25 955.629 25.25C963.962 17.0833 973.712 10.8333 984.879 6.5C996.046 2.16666 1008.3 0 1021.63 0ZM1021.63 11.5C1014.96 11.5 1009.05 13.1667 1003.88 16.5C998.879 19.8333 994.629 24.8333 991.129 31.5C987.629 38.1667 984.962 46.5 983.129 56.5C981.296 66.3333 980.379 77.9167 980.379 91.25C980.379 104.75 981.296 116.583 983.129 126.75C984.962 136.75 987.629 145 991.129 151.5C994.629 158 998.879 162.917 1003.88 166.25C1009.05 169.417 1014.96 171 1021.63 171C1028.3 171 1034.13 169.417 1039.13 166.25C1044.3 162.917 1048.63 158 1052.13 151.5C1055.63 145 1058.3 136.75 1060.13 126.75C1061.96 116.583 1062.88 104.75 1062.88 91.25C1062.88 77.9167 1061.96 66.3333 1060.13 56.5C1058.3 46.5 1055.63 38.1667 1052.13 31.5C1048.63 24.8333 1044.3 19.8333 1039.13 16.5C1034.13 13.1667 1028.3 11.5 1021.63 11.5Z" fill="url(#paint2_linear_379_74)" fill-opacity="0.05"/>
<path d="M1193.35 0C1203.68 0 1212.43 1.41666 1219.6 4.25C1226.93 6.91666 1233.01 10.8333 1237.85 16C1239.16 17.3123 1240.4 18.6944 1241.56 20.1445L1243.85 2.5H1255.1V48.5H1244.6C1242.26 40.8333 1238.85 34.25 1234.35 28.75C1229.85 23.0833 1224.51 18.8333 1218.35 16C1212.35 13 1205.68 11.5 1198.35 11.5C1191.85 11.5 1186.35 12.4167 1181.85 14.25C1177.51 16.0833 1174.18 18.8333 1171.85 22.5C1169.68 26 1168.6 30.25 1168.6 35.25C1168.6 40.25 1169.68 44.4167 1171.85 47.75C1174.18 51.0833 1177.43 53.9167 1181.6 56.25C1185.76 58.5833 1190.6 60.6667 1196.1 62.5C1201.76 64.1667 1207.85 65.8333 1214.35 67.5C1221.51 69.5 1228.35 71.9167 1234.85 74.75C1241.51 77.4167 1247.43 80.8333 1252.6 85C1257.93 89.1667 1262.1 94.4167 1265.1 100.75C1268.1 107.083 1269.6 114.75 1269.6 123.75C1269.6 135.583 1266.85 145.917 1261.35 154.75C1256.01 163.417 1248.35 170.25 1238.35 175.25C1228.51 180.083 1216.76 182.5 1203.1 182.5C1193.1 182.5 1183.85 181.083 1175.35 178.25C1166.85 175.417 1159.43 171.083 1153.1 165.25C1150.37 162.67 1147.9 159.796 1145.67 156.631L1142.85 180H1131.35V126H1142.85C1146.18 136.333 1150.6 144.833 1156.1 151.5C1161.6 158 1168.01 162.917 1175.35 166.25C1182.68 169.417 1190.68 171 1199.35 171C1206.35 171 1212.35 170.083 1217.35 168.25C1222.51 166.25 1226.51 163.25 1229.35 159.25C1232.18 155.083 1233.6 149.833 1233.6 143.5C1233.6 138.667 1232.43 134.583 1230.1 131.25C1227.76 127.917 1224.35 125 1219.85 122.5C1215.51 120 1210.26 117.75 1204.1 115.75C1198.1 113.583 1191.26 111.333 1183.6 109C1177.26 107 1171.01 104.583 1164.85 101.75C1158.85 98.9167 1153.43 95.3333 1148.6 91C1143.76 86.6667 1139.93 81.4167 1137.1 75.25C1134.43 68.9167 1133.1 61.25 1133.1 52.25C1133.1 41.25 1135.76 31.9167 1141.1 24.25C1146.6 16.4167 1153.93 10.4167 1163.1 6.25C1172.26 2.08334 1182.35 0 1193.35 0Z" fill="url(#paint3_linear_379_74)" fill-opacity="0.05"/>
<path d="M290.971 49.25H280.971L275.971 25.75C275.471 22.75 274.137 20.4167 271.971 18.75C269.971 16.9167 267.137 15.6667 263.471 15C259.971 14.1667 255.471 13.75 249.971 13.75H218.471V84.042C225.116 83.7479 231.116 83.4016 236.471 83C243.304 82.3333 249.554 81.5833 255.221 80.75C261.054 79.9167 266.721 78.8333 272.221 77.5V101.25C266.721 99.75 261.054 98.5 255.221 97.5C249.554 96.5 243.304 95.75 236.471 95.25C231.116 94.8484 225.116 94.5011 218.471 94.207V168.75H250.721C255.721 168.75 259.971 168.583 263.471 168.25C266.971 167.75 269.804 167.083 271.971 166.25C274.304 165.25 276.054 164 277.221 162.5C278.387 160.833 279.221 158.75 279.721 156.25L285.721 127H296.221V180H153.721V170.75H155.721C159.721 170.75 163.137 170.167 165.971 169C168.804 167.833 170.221 165.417 170.221 161.75V20.75C170.221 17.0833 168.804 14.6667 165.971 13.5C163.137 12.3333 159.721 11.75 155.721 11.75H153.721V2.5H290.971V49.25Z" fill="url(#paint4_linear_379_74)" fill-opacity="0.05"/>
<path fill-rule="evenodd" clip-rule="evenodd" d="M402.174 2.5C416.84 2.5 429.257 4.58334 439.424 8.75C449.59 12.75 457.34 18.4167 462.674 25.75C468.007 32.9167 470.674 41.3333 470.674 51C470.674 61 467.924 69.6667 462.424 77C457.103 84.1505 449.292 89.8067 438.993 93.9707L470.424 163.5C471.424 165.667 472.59 167.333 473.924 168.5C475.257 169.5 476.674 170.167 478.174 170.5C479.84 170.667 481.757 170.75 483.924 170.75H484.674V180H426.424L394.012 101.25H376.674V168.25C376.674 168.75 377.09 169.167 377.924 169.5C378.757 169.667 379.84 169.917 381.174 170.25C382.507 170.417 384.007 170.583 385.674 170.75H392.924V180H311.924V170.75H313.924C317.924 170.75 321.34 170.25 324.174 169.25C327.007 168.083 328.424 165.833 328.424 162.5V20C328.424 16.6667 327.007 14.5 324.174 13.5C321.34 12.3333 317.924 11.75 313.924 11.75H311.924V2.5H402.174ZM376.674 90.5H392.674C399.34 90.5 404.757 89.0833 408.924 86.25C413.257 83.4167 416.424 79.0833 418.424 73.25C420.424 67.4167 421.424 59.8333 421.424 50.5C421.424 42 420.34 35 418.174 29.5C416.174 24 413.09 20 408.924 17.5C404.924 14.8333 399.84 13.5 393.674 13.5H376.674V90.5Z" fill="url(#paint5_linear_379_74)" fill-opacity="0.05"/>
<path d="M558.734 11.75H554.734C552.901 11.75 551.068 11.9167 549.234 12.25C547.401 12.4167 545.818 12.6667 544.484 13C543.318 13.3333 542.734 13.8333 542.734 14.5L584.362 138.698L625.484 16C625.484 15.1667 625.151 14.4167 624.484 13.75C623.818 13.0833 622.568 12.5833 620.734 12.25C619.068 11.9167 616.651 11.75 613.484 11.75H608.984V2.5H650.484V11.75H649.234C645.901 11.75 643.151 12.6667 640.984 14.5C638.984 16.1667 637.151 19.4167 635.484 24.25L582.984 180H549.234L494.734 19.5C493.568 16.1667 491.984 14.0833 489.984 13.25C488.151 12.25 485.734 11.75 482.734 11.75H481.484V2.5H558.734V11.75Z" fill="url(#paint6_linear_379_74)" fill-opacity="0.05"/>
<path d="M740.83 11.75H738.83C734.83 11.75 731.413 12.3333 728.58 13.5C725.747 14.6667 724.33 16.9167 724.33 20.25V162.25C724.33 165.583 725.747 167.833 728.58 169C731.413 170.167 734.83 170.75 738.83 170.75H740.83V180H659.58V170.75H661.58C665.58 170.75 668.997 170.167 671.83 169C674.663 167.833 676.08 165.583 676.08 162.25V20.25C676.08 16.9167 674.663 14.6667 671.83 13.5C668.997 12.3333 665.58 11.75 661.58 11.75H659.58V2.5H740.83V11.75Z" fill="url(#paint7_linear_379_74)" fill-opacity="0.05"/>
<defs>
<linearGradient id="paint0_linear_379_74" x1="-11.1719" y1="-19.546" x2="943.466" y2="645.742" gradientUnits="userSpaceOnUse">
<stop stop-color="#F8B88A"/>
<stop offset="0.495192" stop-color="#FBFAFF"/>
<stop offset="1" stop-color="#F8B88A"/>
</linearGradient>
<linearGradient id="paint1_linear_379_74" x1="-11.1719" y1="-19.546" x2="943.466" y2="645.742" gradientUnits="userSpaceOnUse">
<stop stop-color="#F8B88A"/>
<stop offset="0.495192" stop-color="#FBFAFF"/>
<stop offset="1" stop-color="#F8B88A"/>
</linearGradient>
<linearGradient id="paint2_linear_379_74" x1="-11.1719" y1="-19.546" x2="943.466" y2="645.742" gradientUnits="userSpaceOnUse">
<stop stop-color="#F8B88A"/>
<stop offset="0.495192" stop-color="#FBFAFF"/>
<stop offset="1" stop-color="#F8B88A"/>
</linearGradient>
<linearGradient id="paint3_linear_379_74" x1="-11.1719" y1="-19.546" x2="943.466" y2="645.742" gradientUnits="userSpaceOnUse">
<stop stop-color="#F8B88A"/>
<stop offset="0.495192" stop-color="#FBFAFF"/>
<stop offset="1" stop-color="#F8B88A"/>
</linearGradient>
<linearGradient id="paint4_linear_379_74" x1="-11.1719" y1="-19.546" x2="943.466" y2="645.742" gradientUnits="userSpaceOnUse">
<stop stop-color="#F8B88A"/>
<stop offset="0.495192" stop-color="#FBFAFF"/>
<stop offset="1" stop-color="#F8B88A"/>
</linearGradient>
<linearGradient id="paint5_linear_379_74" x1="-11.1719" y1="-19.546" x2="943.466" y2="645.742" gradientUnits="userSpaceOnUse">
<stop stop-color="#F8B88A"/>
<stop offset="0.495192" stop-color="#FBFAFF"/>
<stop offset="1" stop-color="#F8B88A"/>
</linearGradient>
<linearGradient id="paint6_linear_379_74" x1="-11.1719" y1="-19.546" x2="943.466" y2="645.742" gradientUnits="userSpaceOnUse">
<stop stop-color="#F8B88A"/>
<stop offset="0.495192" stop-color="#FBFAFF"/>
<stop offset="1" stop-color="#F8B88A"/>
</linearGradient>
<linearGradient id="paint7_linear_379_74" x1="-11.1719" y1="-19.546" x2="943.466" y2="645.742" gradientUnits="userSpaceOnUse">
<stop stop-color="#F8B88A"/>
<stop offset="0.495192" stop-color="#FBFAFF"/>
<stop offset="1" stop-color="#F8B88A"/>
</linearGradient>
</defs>
</svg>
