<svg width="32" height="32" viewBox="0 0 32 32" fill="none" xmlns="http://www.w3.org/2000/svg">
<g clip-path="url(#clip0_328_1257)">
<path d="M30.2395 1.76026C29.0664 0.586825 27.653 0 26.0003 0H6.00018C4.34755 0 2.93412 0.586825 1.76047 1.76026C0.587039 2.93391 0.000213623 4.34726 0.000213623 5.99996V25.9999C0.000213623 27.6524 0.587039 29.0659 1.76047 30.2396C2.93412 31.4132 4.34755 32.0001 6.00018 32.0001H26.0001C27.6527 32.0001 29.0662 31.4132 30.2393 30.2396C31.413 29.0659 31.9998 27.6525 31.9998 25.9999V5.99996C31.9997 4.34726 31.4129 2.93369 30.2395 1.76026ZM9.75011 26.7915H4.93759V12.3331H9.75011V26.7915ZM9.31287 9.65627C8.81295 10.1355 8.15316 10.3751 7.33363 10.3751H7.31262C6.52104 10.3751 5.8789 10.1355 5.3857 9.65627C4.89242 9.17708 4.64593 8.5834 4.64593 7.87507C4.64593 7.15289 4.89957 6.55556 5.40635 6.08322C5.91349 5.61103 6.56964 5.37483 7.37508 5.37483C8.1806 5.37483 8.82645 5.61103 9.31265 6.08322C9.79871 6.55556 10.0488 7.15289 10.0626 7.87507C10.0625 8.5831 9.81279 9.17679 9.31287 9.65627ZM27.0626 26.7915H22.2501V19.0625C22.2501 16.8822 21.4448 15.7917 19.8336 15.7917C19.2226 15.7917 18.7084 15.9618 18.2919 16.3022C17.8749 16.6423 17.5625 17.0555 17.3545 17.542C17.257 17.7917 17.2086 18.1805 17.2086 18.7081V26.7914H12.3961C12.4377 18.0694 12.4377 13.2497 12.3961 12.333H17.2086V14.3742C18.2205 12.7922 19.6573 11.9995 21.5212 11.9995C23.1878 11.9995 24.5283 12.5482 25.5421 13.6453C26.5561 14.7425 27.0629 16.3608 27.0629 18.4992V26.7915H27.0626Z" fill="url(#paint0_linear_328_1257)"/>
</g>
<defs>
<linearGradient id="paint0_linear_328_1257" x1="0.00021355" y1="2.7292" x2="34.5245" y2="7.87414" gradientUnits="userSpaceOnUse">
<stop stop-color="#FDF0E6"/>
<stop offset="0.495192" stop-color="#FFFEFD"/>
<stop offset="1" stop-color="#FDF0E6"/>
</linearGradient>
<clipPath id="clip0_328_1257">
<rect width="32" height="32" fill="white"/>
</clipPath>
</defs>
</svg>
