<svg width="24" height="24" viewBox="0 0 24 24" fill="none" xmlns="http://www.w3.org/2000/svg">
<g clip-path="url(#clip0_799_103)">
<path d="M9 12C12.309 12 15 9.309 15 6C15 2.691 12.309 0 9 0C5.691 0 3 2.691 3 6C3 9.309 5.691 12 9 12ZM16.086 24H13V20.914L20.275 13.639C21.127 12.787 22.509 12.787 23.361 13.639C24.213 14.491 24.213 15.873 23.361 16.725L16.086 24ZM11 24H0V19C0 16.243 2.243 14 5 14H13C14.145 14 15.189 14.403 16.033 15.053L11 20.086V24Z" fill="black"/>
</g>
<defs>
<clipPath id="clip0_799_103">
<rect width="24" height="24" fill="white"/>
</clipPath>
</defs>
</svg>
