<svg width="48" height="48" viewBox="0 0 48 48" fill="none" xmlns="http://www.w3.org/2000/svg">
<g clip-path="url(#clip0_328_959)">
<path d="M24.3316 25.6547L18.6566 42.1458C20.3518 42.6427 22.144 42.9169 24.001 42.9169C26.203 42.9169 28.3164 42.5358 30.2814 41.8444C30.2309 41.7632 30.1849 41.6771 30.1473 41.5836L24.3316 25.6547Z" fill="#FFFEFD"/>
<path d="M5.08411 23.9991C5.08411 31.4871 9.43568 37.9576 15.7458 41.0233L6.72288 16.3011C5.67359 18.6536 5.08411 21.2571 5.08411 23.9991Z" fill="#FFFEFD"/>
<path d="M36.7692 23.0448C36.7692 20.7071 35.9302 19.0886 35.2106 17.8275C34.2514 16.2694 33.3525 14.9504 33.3525 13.3918C33.3525 11.653 34.6711 10.0346 36.5291 10.0346C36.6133 10.0346 36.6924 10.045 36.7746 10.0489C33.41 6.96689 28.9267 5.08411 24.0015 5.08411C17.392 5.08411 11.5778 8.4745 8.19684 13.6106C8.64031 13.6239 9.05755 13.6333 9.41391 13.6333C11.3927 13.6333 14.4559 13.3933 14.4559 13.3933C15.4765 13.3319 15.5953 14.8301 14.5772 14.9504C14.5772 14.9504 13.5522 15.0707 12.4123 15.131L19.2995 35.6204L23.4387 23.2046L20.4908 15.1305C19.4722 15.0702 18.5076 14.9499 18.5076 14.9499C17.489 14.8905 17.6078 13.3324 18.6269 13.3928C18.6269 13.3928 21.7515 13.6328 23.609 13.6328C25.5873 13.6328 28.6515 13.3928 28.6515 13.3928C29.6721 13.3324 29.7914 14.8296 28.7718 14.9499C28.7718 14.9499 27.7458 15.0702 26.6069 15.1305L33.4436 35.4645L35.3303 29.1598C36.1475 26.5435 36.7692 24.6637 36.7692 23.0448Z" fill="#FFFEFD"/>
<path d="M40.598 14.9242C40.6792 15.5261 40.7257 16.1739 40.7257 16.8693C40.7257 18.7887 40.3679 20.9467 39.2879 23.6447L33.5094 40.3496C39.1325 37.0701 42.9164 30.9773 42.9164 24C42.9169 20.7106 42.0759 17.6182 40.598 14.9242Z" fill="#FFFEFD"/>
<path d="M24 0C10.7453 0 0.000488281 10.7453 0.000488281 24C0.000488281 37.2547 10.7453 48 24 48C37.2547 48 47.9995 37.2547 47.9995 24C47.9995 10.7453 37.2547 0 24 0ZM24.001 45.0387C12.3994 45.0387 2.96225 35.6016 2.96225 23.999C2.96225 12.3984 12.3989 2.96127 24.001 2.96127C35.6011 2.96127 45.0377 12.3989 45.0377 23.999C45.0382 35.6006 35.6006 45.0387 24.001 45.0387Z" fill="#FFFEFD"/>
</g>
<defs>
<clipPath id="clip0_328_959">
<rect width="48" height="48" fill="white"/>
</clipPath>
</defs>
</svg>
