<svg width="40" height="40" viewBox="0 0 40 40" fill="none" xmlns="http://www.w3.org/2000/svg">
<g clip-path="url(#clip0_504_132)">
<path d="M31.25 0C26.425 0 22.5 3.925 22.5 8.75C22.5 13.24 29.52 21.1925 30.32 22.085C30.5575 22.3475 30.895 22.5 31.25 22.5C31.605 22.5 31.9425 22.3475 32.18 22.085C32.98 21.1925 40 13.24 40 8.75C40 3.925 36.075 0 31.25 0ZM31.25 12.5C29.18 12.5 27.5 10.82 27.5 8.75C27.5 6.68 29.18 5 31.25 5C33.32 5 35 6.68 35 8.75C35 10.82 33.32 12.5 31.25 12.5Z" fill="#FEFAF7"/>
<path d="M21.7775 14.485C21.1875 14.5125 20.5975 14.56 20 14.56C17.9325 14.56 15.9025 14.3675 13.8925 14.085C13.05 17.99 13.05 22.03 13.8975 25.935C17.945 25.37 22.0525 25.37 26.0975 25.935C26.405 24.515 26.5625 23.075 26.6475 21.6325C25.1175 19.7575 23.1725 17.145 21.7775 14.485Z" fill="#FEFAF7"/>
<path d="M21.3325 3.55252C20.905 2.97002 20.4775 2.38752 20 1.83252C17.47 4.77752 15.645 8.11002 14.5425 11.6275C16.5675 11.895 18.61 11.9975 20.65 11.965C20.245 10.84 20 9.75002 20 8.75002C20 6.86502 20.51 5.11502 21.3325 3.55252Z" fill="#FEFAF7"/>
<path d="M3.54004 8.6C6.26754 9.8 9.12004 10.67 12.035 11.2375C13.25 7.1925 15.34 3.36 18.275 0C12.165 0.525 6.84254 3.8025 3.54004 8.6Z" fill="#FEFAF7"/>
<path d="M27.9649 28.7598C26.7474 32.8073 24.6574 36.6398 21.7224 39.9998C27.8349 39.4748 33.1574 36.1973 36.4599 31.3998C33.7349 30.1973 30.8799 29.3298 27.9649 28.7598Z" fill="#FEFAF7"/>
<path d="M39.6374 16.3877C37.6424 19.6152 35.1474 22.5227 34.0424 23.7552C33.3299 24.5452 32.3125 25.0002 31.25 25.0002C30.395 25.0002 29.5775 24.6952 28.915 24.1652C28.815 24.8852 28.725 25.6052 28.575 26.3177C31.68 26.9327 34.725 27.8677 37.625 29.1627L37.755 29.2202C39.1825 26.4577 40 23.3277 40 20.0002C40 18.7627 39.8524 17.5627 39.6374 16.3877Z" fill="#FEFAF7"/>
<path d="M14.5425 28.3726C15.6475 31.8901 17.47 35.2226 20 38.1676C22.53 35.2226 24.3525 31.8876 25.4575 28.3701C21.835 27.8926 18.165 27.8951 14.5425 28.3726Z" fill="#FEFAF7"/>
<path d="M12.035 28.7598C9.12254 29.3298 6.26754 30.1973 3.54004 31.3998C6.84004 36.1973 12.165 39.4748 18.275 39.9998C15.34 36.6398 13.2475 32.8073 12.035 28.7598Z" fill="#FEFAF7"/>
<path d="M11.4175 13.6973C8.3125 13.0748 5.2875 12.1348 2.3725 10.8373L2.245 10.7798C0.82 13.5423 0 16.6723 0 19.9998C0 23.3273 0.8175 26.4573 2.245 29.2198L2.375 29.1623C5.2775 27.8698 8.32 26.9348 11.4225 26.3173C10.5425 22.1573 10.54 17.8573 11.4175 13.6973Z" fill="#FEFAF7"/>
</g>
<defs>
<clipPath id="clip0_504_132">
<rect width="40" height="40" fill="white"/>
</clipPath>
</defs>
</svg>
